<svg width="600" height="504" viewBox="0 0 600 504" fill="none" xmlns="http://www.w3.org/2000/svg">
<g clip-path="url(#clip0)">
<path d="M440.193 306.267C441.808 306.267 443.44 306.241 445.042 306.191L445.006 305.028C442.706 305.099 440.358 305.119 438.047 305.087L438.032 306.252C438.751 306.261 439.471 306.266 440.193 306.267ZM431.025 305.996L431.093 304.834C428.79 304.698 426.457 304.507 424.159 304.267L424.038 305.424C426.353 305.667 428.704 305.86 431.025 305.996V305.996ZM452.042 305.815C454.365 305.637 456.712 305.404 459.019 305.121L458.877 303.965C456.588 304.246 454.259 304.478 451.953 304.654L452.042 305.815ZM417.084 304.535L417.259 303.384C414.97 303.036 412.664 302.633 410.406 302.184L410.179 303.326C412.454 303.778 414.778 304.185 417.084 304.535V304.535ZM465.956 304.109C468.25 303.72 470.567 303.273 472.84 302.779L472.593 301.641C470.337 302.131 468.039 302.575 465.761 302.96L465.956 304.109ZM403.335 301.802L403.615 300.671C401.368 300.116 399.109 299.502 396.9 298.847L396.569 299.964C398.795 300.624 401.071 301.242 403.335 301.802V301.802ZM479.655 301.134C481.906 300.536 484.171 299.877 486.387 299.176L486.036 298.066C483.837 298.761 481.589 299.415 479.356 300.008L479.655 301.134ZM389.895 297.815L390.278 296.715C388.097 295.957 385.905 295.138 383.76 294.279L383.327 295.361C385.489 296.225 387.698 297.051 389.895 297.815H389.895ZM493.039 296.903C495.225 296.099 497.425 295.232 499.577 294.326L499.125 293.252C496.99 294.152 494.807 295.012 492.637 295.81L493.039 296.903ZM376.894 292.613L377.376 291.553C375.283 290.601 373.178 289.586 371.122 288.534L370.592 289.572C372.664 290.631 374.785 291.654 376.894 292.613H376.894ZM364.435 286.244L365.011 285.233C363.004 284.087 360.999 282.882 359.055 281.653L358.433 282.636C360.392 283.876 362.411 285.09 364.435 286.244H364.435ZM352.601 278.757L353.268 277.803C351.377 276.482 349.491 275.099 347.66 273.692L346.951 274.615C348.795 276.033 350.696 277.427 352.601 278.757ZM530.088 277.117C531.968 275.752 533.845 274.322 535.669 272.866L534.942 271.956C533.132 273.401 531.269 274.82 529.404 276.175L530.088 277.117ZM341.494 270.22L342.244 269.33C340.482 267.843 338.729 266.293 337.031 264.724L336.241 265.579C337.951 267.16 339.718 268.722 341.494 270.22H341.494ZM541.049 268.365C542.8 266.832 544.539 265.238 546.218 263.626L545.411 262.786C543.745 264.386 542.019 265.968 540.282 267.49L541.049 268.365ZM331.204 260.702L332.033 259.885C330.408 258.238 328.801 256.535 327.257 254.822L326.392 255.601C327.948 257.327 329.567 259.044 331.204 260.702ZM551.164 258.657C552.77 256.969 554.356 255.223 555.878 253.47L554.999 252.706C553.488 254.447 551.914 256.179 550.32 257.855L551.164 258.657ZM321.818 250.285L322.717 249.546C321.249 247.76 319.805 245.917 318.421 244.067L317.489 244.764C318.882 246.628 320.339 248.486 321.817 250.285L321.818 250.285ZM560.351 248.074C561.793 246.252 563.213 244.37 564.572 242.482L563.627 241.802C562.278 243.675 560.869 245.542 559.438 247.352L560.351 248.074ZM313.416 239.051L314.38 238.397C313.081 236.485 311.809 234.517 310.599 232.546L309.607 233.156C310.826 235.141 312.108 237.124 313.416 239.051L313.416 239.051ZM568.532 236.705C569.801 234.759 571.043 232.758 572.224 230.754L571.221 230.163C570.049 232.151 568.816 234.138 567.557 236.068L568.532 236.705ZM306.071 227.091L307.09 226.528C305.972 224.505 304.886 222.427 303.861 220.353L302.817 220.869C303.849 222.959 304.945 225.053 306.071 227.091V227.091ZM299.852 214.502L300.919 214.035C299.991 211.916 299.1 209.745 298.27 207.584L297.183 208.002C298.019 210.18 298.917 212.366 299.852 214.502V214.502ZM581.607 211.989C582.5 209.847 583.355 207.655 584.148 205.474L583.053 205.076C582.266 207.24 581.418 209.415 580.532 211.541L581.607 211.989ZM294.817 201.383L295.922 201.017C295.195 198.827 294.509 196.589 293.884 194.364L292.763 194.679C293.393 196.921 294.085 199.177 294.817 201.383ZM586.391 198.831C587.084 196.612 587.735 194.345 588.326 192.092L587.2 191.796C586.613 194.032 585.967 196.282 585.28 198.484L586.391 198.831ZM291.021 187.888L292.155 187.624C291.634 185.38 291.158 183.088 290.738 180.813L289.593 181.023C290.015 183.316 290.496 185.625 291.021 187.888V187.888ZM589.948 185.271C590.433 182.997 590.873 180.679 591.254 178.383L590.105 178.192C589.727 180.471 589.291 182.771 588.809 185.028L589.948 185.271ZM288.483 174.101L289.638 173.943C289.324 171.662 289.06 169.337 288.851 167.031L287.691 167.135C287.902 169.46 288.168 171.803 288.483 174.101V174.101ZM592.243 171.442C592.517 169.137 592.743 166.79 592.913 164.464L591.751 164.379C591.583 166.687 591.359 169.017 591.086 171.305L592.243 171.442ZM287.217 160.141L288.38 160.089C288.277 157.782 288.224 155.441 288.224 153.133H287.06C287.06 155.459 287.112 157.817 287.217 160.141ZM593.266 157.462C593.306 156.034 593.326 154.578 593.326 153.133C593.326 152.237 593.318 151.343 593.303 150.45L592.139 150.47C592.154 151.356 592.162 152.244 592.162 153.133C592.161 154.567 592.141 156.013 592.102 157.43L593.266 157.462ZM591.862 143.518L593.025 143.446C592.879 141.119 592.679 138.769 592.429 136.46L591.271 136.586C591.519 138.877 591.718 141.209 591.862 143.518H591.862ZM288.976 136.414C289.209 134.118 289.528 132.999 289.866 130.713L288.714 130.543C288.374 132.846 288.082 134.604 287.848 136.917L288.976 136.414ZM590.364 129.688L591.515 129.51C591.158 127.206 590.744 124.884 590.283 122.608L589.142 122.839C589.599 125.098 590.01 127.402 590.364 129.688ZM291.042 123.856C291.486 121.585 291.987 119.298 292.531 117.06L291.4 116.785C290.851 119.04 290.346 121.344 289.899 123.633L291.042 123.856ZM587.606 116.053L588.736 115.77C588.17 113.515 587.544 111.241 586.874 109.011L585.759 109.346C586.423 111.559 587.045 113.815 587.606 116.053ZM294.333 110.339C294.982 108.122 295.692 105.892 296.442 103.709L295.341 103.331C294.585 105.53 293.869 107.778 293.215 110.012L294.333 110.339ZM583.597 102.712L584.696 102.326C583.922 100.124 583.086 97.9125 582.212 95.7515L581.133 96.1882C582 98.3324 582.829 100.528 583.597 102.712V102.712ZM298.855 97.1835C299.704 95.0404 300.614 92.8897 301.559 90.7907L300.497 90.3125C299.544 92.4277 298.628 94.5949 297.772 96.7542L298.855 97.1835ZM578.371 89.7873L579.429 89.3012C578.456 87.1831 577.421 85.0591 576.352 82.9882L575.317 83.5221C576.378 85.5774 577.405 87.6852 578.371 89.7873ZM304.554 84.5263C305.596 82.4705 306.7 80.4104 307.836 78.4041L306.823 77.8303C305.678 79.8523 304.566 81.928 303.516 83.9998L304.554 84.5263ZM571.979 77.4056L572.988 76.8245C571.827 74.8074 570.602 72.7882 569.347 70.8237L568.366 71.4503C569.611 73.4 570.827 75.4038 571.979 77.4056V77.4056ZM311.395 72.436C312.626 70.4771 313.914 68.5256 315.225 66.6356L314.269 65.972C312.948 67.8766 311.649 69.8428 310.409 71.8167L311.395 72.436ZM564.484 65.6681L565.436 64.9971C564.093 63.0931 562.69 61.1954 561.263 59.3565L560.343 60.0701C561.758 61.8954 563.152 63.7786 564.484 65.6681ZM319.317 61.0146C320.72 59.1765 322.181 57.3493 323.661 55.5838L322.769 54.8358C321.278 56.615 319.805 58.4558 318.391 60.3078L319.317 61.0146ZM555.952 54.6686L556.838 53.9135C555.332 52.144 553.762 50.3827 552.171 48.6786L551.32 49.473C552.898 51.1643 554.456 52.9125 555.952 54.6686ZM328.249 50.3552C329.813 48.6525 331.436 46.9648 333.071 45.3397L332.25 44.5136C330.603 46.1514 328.968 47.8516 327.392 49.5671L328.249 50.3552ZM546.458 44.4953L547.273 43.6629C545.607 42.0338 543.884 40.4232 542.151 38.8761L541.376 39.7449C543.096 41.2801 544.806 42.8785 546.458 44.4953ZM338.117 40.5478C339.831 38.9929 341.601 37.4594 343.377 35.9898L342.635 35.0925C340.845 36.5732 339.062 38.1184 337.334 39.6852L338.117 40.5478ZM536.083 35.2307L536.819 34.3278C535.018 32.8611 533.156 31.4145 531.286 30.0282L530.592 30.9636C532.449 32.3396 534.296 33.7751 536.083 35.2307ZM524.915 26.9526L525.564 25.9865C523.637 24.6895 521.652 23.4196 519.666 22.211L519.061 23.2061C521.032 24.4052 523.001 25.6659 524.915 26.9526ZM513.044 19.7318L513.603 18.7101C511.563 17.5942 509.472 16.5115 507.388 15.4917L506.876 16.538C508.945 17.5498 511.02 18.6242 513.044 19.7318ZM372.504 17.0338C374.577 16.0015 376.699 15.0041 378.813 14.0696L378.342 13.0046C376.212 13.9462 374.073 14.9513 371.985 15.9915L372.504 17.0338ZM500.571 13.631L501.034 12.5625C498.902 11.6388 496.722 10.7529 494.554 9.92929L494.141 11.0182C496.292 11.8353 498.456 12.7144 500.571 13.631ZM385.254 11.3983C387.41 10.5622 389.617 9.76439 391.813 9.02748L391.443 7.92323C389.23 8.66612 387.006 9.46985 384.833 10.3128L385.254 11.3983ZM487.581 8.69855L487.944 7.59204C485.731 6.86649 483.473 6.18331 481.233 5.5621L480.922 6.68397C483.145 7.30063 485.385 7.97841 487.581 8.69855ZM398.459 6.96713C400.68 6.33399 402.946 5.74434 405.192 5.21468L404.925 4.08144C402.661 4.61508 400.378 5.20927 398.14 5.84698L398.459 6.96713ZM474.177 4.97843L474.436 3.8432C472.167 3.32491 469.856 2.85268 467.567 2.43987L467.36 3.58562C469.632 3.99558 471.925 4.46412 474.177 4.97843ZM411.999 3.77496C414.267 3.34936 416.576 2.97066 418.864 2.6494L418.703 1.49626C416.397 1.82009 414.069 2.20162 411.784 2.63035L411.999 3.77496ZM460.487 2.50783L460.641 1.35355C458.335 1.04594 455.991 0.787216 453.673 0.585365L453.572 1.74532C455.872 1.94603 458.198 2.20248 460.487 2.50783ZM425.775 1.83971C428.068 1.62364 430.403 1.45704 432.715 1.34531L432.658 0.181961C430.329 0.294831 427.977 0.462573 425.665 0.680372L425.775 1.83971ZM446.628 1.29868L446.677 0.135333C444.536 0.046062 442.355 0.000570611 440.193 0L439.666 0.000856246L439.669 1.16537L440.193 1.16451C442.339 1.16505 444.504 1.21025 446.628 1.29867V1.29868Z" fill="#3F3D56"/>
<path d="M252.835 54.8522V432.271C252.839 436.766 254.628 441.077 257.808 444.255C260.988 447.433 265.3 449.219 269.796 449.22H423.016C425.244 449.224 427.45 448.788 429.509 447.938C431.568 447.088 433.439 445.84 435.014 444.265C436.59 442.691 437.839 440.821 438.691 438.762C439.543 436.704 439.98 434.498 439.978 432.271V54.8522C439.978 52.6248 439.539 50.4192 438.687 48.3613C437.835 46.3034 436.585 44.4335 435.01 42.8585C433.435 41.2835 431.565 40.0341 429.507 39.1818C427.449 38.3295 425.244 37.8909 423.016 37.8911H400.087V40.8315C400.088 44.5353 398.617 48.0876 395.999 50.7071C393.38 53.3266 389.828 54.7987 386.125 54.7998H308.196C305.214 54.8062 302.311 53.8505 299.916 52.0749C299.432 51.7227 298.973 51.3375 298.542 50.922C297.178 49.6195 296.092 48.0535 295.352 46.319C294.611 44.5845 294.23 42.7175 294.233 40.8315V37.8911H269.796C267.568 37.8904 265.362 38.3287 263.304 39.1808C261.246 40.0329 259.376 41.2823 257.801 42.8574C256.226 44.4325 254.976 46.3026 254.124 48.3607C253.272 50.4188 252.834 52.6247 252.835 54.8522V54.8522Z" fill="#3F3D56"/>
<path d="M275.236 173.947H417.577V282.246H275.236V173.947Z" fill="#2A9D8F"/>
<path d="M492.533 155.699C479.859 155.971 469.778 165.155 469.778 165.155C469.778 165.155 480.244 173.898 492.917 173.626C505.59 173.355 515.672 164.171 515.672 164.171C515.672 164.171 505.206 155.427 492.533 155.699Z" fill="#2A9D8F"/>
<path d="M556.247 112.439C544.797 117.878 531.668 114.189 531.668 114.189C531.668 114.189 537.102 101.682 548.552 96.242C560.002 90.8025 573.131 94.4911 573.131 94.4911C573.131 94.4911 567.696 106.999 556.247 112.439Z" fill="#2A9D8F"/>
<path d="M555.083 107.033C542.459 105.88 531.41 113.873 531.41 113.873C531.41 113.873 540.827 123.737 553.451 124.89C566.075 126.044 577.124 118.051 577.124 118.051C577.124 118.051 567.707 108.187 555.083 107.033Z" fill="#3F3D56"/>
<path d="M508.809 109.219C510.019 121.837 502.075 132.922 502.075 132.922C502.075 132.922 492.17 123.549 490.96 110.93C489.75 98.312 497.694 87.2271 497.694 87.2271C497.694 87.2271 507.599 96.6004 508.809 109.219Z" fill="#3F3D56"/>
<path d="M449.358 186.607C455.98 197.416 453.702 210.862 453.702 210.862C453.702 210.862 440.689 206.782 434.068 195.973C427.446 185.163 429.724 171.717 429.724 171.717C429.724 171.717 442.737 175.797 449.358 186.607Z" fill="#3F3D56"/>
<path d="M468.567 304.134L467.602 303.482C471.004 298.546 472.861 292.711 472.938 286.717C472.911 277.95 468.604 269.84 464.44 261.998C463.667 260.543 462.896 259.092 462.155 257.642C459.044 251.729 456.564 245.504 454.758 239.072C448.298 215.066 454.658 186.743 471.771 163.308C485.346 144.717 505.584 128.46 533.638 113.609L534.183 114.638C506.288 129.405 486.181 145.55 472.711 163.994C455.804 187.147 449.513 215.101 455.883 238.769C457.668 245.123 460.118 251.271 463.191 257.112C463.93 258.556 464.698 260.002 465.468 261.452C469.699 269.419 474.074 277.658 474.102 286.714C474.025 292.941 472.099 299.004 468.567 304.134V304.134Z" fill="#3F3D56"/>
<path d="M588.937 115.139C582.827 115.139 577.874 110.186 577.874 104.076C577.874 97.9662 582.827 93.0132 588.937 93.0132C595.047 93.0132 600 97.9662 600 104.076C600 110.186 595.047 115.139 588.937 115.139Z" fill="#3F3D56"/>
<path d="M433.206 283.652L502.651 277.865V176.013L433.206 172.541V283.652Z" fill="#2A9D8F"/>
<path d="M259.607 283.652L190.162 277.865V176.013L259.607 172.541V283.652Z" fill="#2A9D8F"/>
<path d="M322.267 214.596C324.333 212.811 326.88 211.676 329.588 211.331C332.297 210.987 335.046 211.449 337.493 212.66C339.618 213.688 341.905 214.342 344.252 214.594C344.31 209.51 343.377 204.464 341.504 199.737L341.197 198.944H345.279L345.396 199.373C345.851 201.044 346.209 202.74 346.469 204.453C346.69 203.711 346.975 202.989 347.323 202.297C350.186 196.621 356.801 194.299 357.081 194.204L357.645 194.01L357.825 194.579C357.914 194.861 359.98 201.56 357.117 207.237C355.067 211.301 351.095 213.645 348.901 214.684C351.678 214.505 354.393 213.779 356.888 212.547C358.444 211.745 360.195 211.398 361.939 211.545C363.683 211.692 365.351 212.328 366.75 213.379C374.371 219.17 378.742 227.659 378.742 236.669C378.742 248.505 371.077 259.345 359.214 264.284C358.144 264.728 356.997 264.956 355.838 264.954C354.229 264.955 352.65 264.521 351.267 263.7C349.428 262.631 347.339 262.065 345.212 262.061C343.085 262.057 340.994 262.614 339.151 263.676C337.959 264.379 336.62 264.795 335.24 264.893C333.86 264.99 332.476 264.765 331.197 264.236C319.403 259.278 311.783 248.457 311.783 236.669C311.783 228.232 315.507 220.393 322.267 214.596ZM344.388 200.109H342.889C344.575 204.623 345.434 209.404 345.425 214.223H345.693C346.054 209.479 345.612 204.707 344.388 200.109V200.109ZM356.077 206.712C358.251 202.403 357.297 197.267 356.876 195.534C355.232 196.224 350.54 198.504 348.363 202.821C346.19 207.13 347.143 212.265 347.564 213.999C349.209 213.307 353.904 211.021 356.077 206.712V206.712ZM331.649 263.163C332.76 263.622 333.963 263.817 335.162 263.732C336.362 263.647 337.525 263.284 338.56 262.672C340.583 261.504 342.879 260.892 345.215 260.897C347.55 260.902 349.843 261.524 351.861 262.7C352.894 263.314 354.056 263.68 355.254 263.768C356.452 263.857 357.655 263.665 358.767 263.209C370.194 258.452 377.578 248.034 377.578 236.669C377.578 228.026 373.375 219.875 366.046 214.307C364.64 213.245 362.925 212.672 361.163 212.677C359.862 212.676 358.579 212.986 357.422 213.582C354.233 215.104 350.746 215.904 347.212 215.925C343.678 215.946 340.183 215.187 336.975 213.703C334.733 212.594 332.214 212.171 329.732 212.487C327.251 212.803 324.918 213.844 323.026 215.48C316.527 221.052 312.947 228.577 312.947 236.669C312.947 247.987 320.288 258.386 331.649 263.163V263.163Z" fill="white"/>
<path d="M468.119 203.592V202.225H467.576V197.966C467.574 197.651 467.658 197.34 467.821 197.07C467.983 196.799 468.217 196.578 468.496 196.431C470.899 195.177 473.482 195.178 476.172 196.437C476.469 196.578 476.72 196.8 476.895 197.078C477.071 197.356 477.164 197.678 477.163 198.007V202.225H476.62V203.462C478.62 204.023 480.38 205.224 481.632 206.881C482.884 208.539 483.557 210.561 483.549 212.638V221.852L482.514 222.198L483.549 222.887V225.656L482.514 226.002L483.549 226.692V229.461L482.514 229.806L483.549 230.496V251.586C483.547 253.232 482.893 254.809 481.729 255.972C480.566 257.135 478.989 257.79 477.344 257.792H468.196C466.555 257.79 464.981 257.137 463.821 255.976C462.66 254.816 462.007 253.242 462.005 251.601V230.496L463.04 229.806L462.005 229.461V226.692L463.04 226.002L462.005 225.656V222.887L463.04 222.198L462.005 221.852V212.162C462.012 210.276 462.604 208.439 463.699 206.904C464.794 205.369 466.338 204.212 468.119 203.592V203.592ZM475.679 197.492C473.301 196.381 471.127 196.371 469.035 197.463C468.945 197.513 468.87 197.586 468.818 197.674C468.766 197.763 468.739 197.864 468.74 197.966V200.245H475.999V198.007C476 197.9 475.97 197.794 475.914 197.703C475.857 197.612 475.776 197.538 475.679 197.492V197.492ZM463.17 221.013L465.667 221.846L463.17 223.511V224.817L465.667 225.65L463.17 227.315V228.621L465.667 229.454L463.17 231.119V251.601C463.171 252.933 463.701 254.211 464.644 255.153C465.586 256.096 466.864 256.626 468.196 256.627H477.344C478.68 256.626 479.961 256.094 480.906 255.149C481.851 254.204 482.383 252.923 482.384 251.586V231.119L479.887 229.454L482.384 228.621V227.315L479.887 225.65L482.384 224.817V223.511L479.887 221.846L482.384 221.013V212.638C482.392 210.744 481.754 208.905 480.577 207.423C479.399 205.94 477.752 204.903 475.906 204.481L475.455 204.377V202.225H469.283V204.455L468.864 204.577C467.224 205.06 465.785 206.059 464.759 207.425C463.733 208.792 463.176 210.453 463.17 212.162V221.013Z" fill="white"/>
<path d="M194.421 219.538L197.353 218.952L196.662 217.572L198.007 217.302L197.775 215.904L199.243 215.659V214.333L200.434 213.992L199.303 212.579H201.265L200.855 211.556L202.306 211.314L201.814 209.588H203.384V207.978H203.966C205.801 207.978 206.823 210.157 207.16 211.029C217.286 212.796 246.69 233.162 250.046 235.504C251.44 235.052 253.508 236.112 253.94 236.347L254.623 236.72L253.637 237.706L253.931 238.587L252.122 239.265L252.518 240.256L251.379 241.206L252.402 241.974L250.862 242.899L251.132 244.25L249.412 244.496V245.848L248.413 246.048L248.911 247.794H247.801V249.175H246.719L246.228 250.645L245.724 250.544C244.553 250.31 243.55 248.689 243.158 247.97C233.405 246.23 203.294 225.045 200.363 222.971C196.942 223.38 195.684 222.466 195.55 222.359L194.993 221.913L196.322 220.806L194.421 219.538ZM200.438 221.787L200.665 221.757L200.852 221.89C201.185 222.126 234.207 245.521 243.62 246.865L243.922 246.909L244.059 247.182C244.42 247.917 244.907 248.584 245.499 249.151L245.88 248.01H246.637V246.629H247.368L246.946 245.154L248.247 244.894V243.486L249.748 243.272L249.558 242.322L250.319 241.866L249.502 241.254L251.123 239.903L250.599 238.593L252.471 237.891L252.304 237.392L252.666 237.03C251.791 236.666 250.734 236.396 250.279 236.668L249.955 236.862L249.645 236.645C249.315 236.414 216.517 213.474 206.648 212.128L206.28 212.078L206.17 211.722C206.001 211.172 205.398 209.781 204.548 209.305V210.753H203.357L203.785 212.248L202.475 212.467L202.986 213.744H201.726L202.437 214.632L200.407 215.211V216.646L199.114 216.861L199.341 218.224L198.385 218.414L199.076 219.795L197.406 220.129L198.266 220.702L197.03 221.732C198.153 221.96 199.308 221.979 200.438 221.787V221.787Z" fill="white"/>
<path d="M346.407 331.738C337.081 331.738 329.521 324.178 329.521 314.853C329.521 305.527 337.081 297.967 346.407 297.967C355.732 297.967 363.292 305.527 363.292 314.853C363.292 324.178 355.732 331.738 346.407 331.738Z" fill="#2A9D8F"/>
<path d="M335.775 313.185H344.739V304.221H348.074V313.185H357.038V316.52H348.074V325.484H344.739V316.52H335.775V313.185Z" fill="white"/>
<path d="M293.151 315.435L301.885 311.359V313.688H322.264V317.181H301.885V319.51L293.151 315.435Z" fill="white"/>
<path d="M399.662 315.435L390.928 311.359V313.688H370.549V317.181H390.928V319.51L399.662 315.435Z" fill="white"/>
<path d="M290.51 93.0132H402.303V94.1777H290.51V93.0132Z" fill="white"/>
<path d="M290.239 410.925H402.032V412.089H290.239V410.925Z" fill="white"/>
<path d="M110.613 295.929L113.525 306.992C113.525 306.992 124.005 330.282 113.525 331.447C103.044 332.611 102.462 301.169 102.462 301.169L110.613 295.929Z" fill="#A0616A"/>
<path d="M92.5632 216.16L113.524 298.84C113.524 298.84 105.373 301.17 101.297 304.081L92.5632 216.16Z" fill="#F4A261"/>
<path d="M26.769 279.044L20.9465 369.294C20.9465 369.294 6.97234 404.811 7.55459 438.582C7.55459 438.582 12.7949 451.974 8.7191 454.303C4.64331 456.632 2.31429 458.379 4.64331 460.126C6.97234 461.872 8.7191 465.948 6.97234 467.113C5.22557 468.277 4.64331 470.024 5.22557 470.024H22.6932C22.6932 470.024 19.1997 461.29 24.44 458.961C29.6803 456.632 26.769 450.81 26.769 450.81L65.7802 336.687L96.6397 441.493C96.6397 441.493 91.3994 444.987 95.4752 446.734C99.551 448.48 101.298 444.987 99.551 448.48C97.8042 451.974 100.133 453.721 100.133 454.303C100.133 454.885 117.601 452.556 117.601 452.556C117.601 452.556 108.867 444.987 112.943 443.24C117.019 441.493 118.765 439.747 117.601 438.582C116.436 437.418 111.778 426.355 111.778 426.355C111.778 426.355 109.449 384.432 108.867 382.686C108.285 380.939 108.867 372.787 108.867 368.711C108.867 364.636 109.449 348.332 107.703 344.257C105.956 340.181 104.209 290.107 94.8929 284.284C85.5769 278.462 26.769 279.044 26.769 279.044Z" fill="#2F2E41"/>
<path d="M100.715 451.392C100.715 451.392 89.0696 475.264 97.2212 478.176C105.373 481.087 115.853 478.758 118.182 482.251C120.511 485.745 146.131 489.821 146.713 481.087C147.295 472.353 118.765 456.05 118.765 456.05L115.048 450.065L100.715 451.392Z" fill="#2F2E41"/>
<path d="M6.38946 468.859C6.38946 468.859 -5.25566 492.732 2.89592 495.643C11.0475 498.554 21.5281 496.225 23.8571 499.719C26.1862 503.212 51.8054 507.288 52.3877 498.554C52.9699 489.82 24.4394 473.517 24.4394 473.517L20.7229 467.533L6.38946 468.859Z" fill="#2F2E41"/>
<path d="M60.2484 169.289C49.6365 169.289 41.0339 160.686 41.0339 150.074C41.0339 139.462 49.6365 130.86 60.2484 130.86C70.8603 130.86 79.4629 139.462 79.4629 150.074C79.4629 160.686 70.8603 169.289 60.2484 169.289Z" fill="#A0616A"/>
<path d="M47.1478 160.264L49.4768 177.149L66.9445 190.541L71.6025 184.136V162.01L47.1478 160.264Z" fill="#A0616A"/>
<path d="M74.5137 181.807C74.5137 181.807 56.4638 183.554 47.1477 177.149L28.5155 287.195C28.5155 287.195 94.3104 292.436 97.2217 288.942V254.589L85.5766 198.692L74.5137 181.807Z" fill="#AFAFAF"/>
<path d="M48.7513 171.888L42.4899 177.149C42.4899 177.149 16.8706 181.225 18.6174 188.212L25.6045 270.892L23.2755 298.841C23.2755 298.841 43.0721 293.6 58.2108 298.841C73.3494 304.081 61.322 186.23 61.322 186.23C61.322 186.23 47.4433 173.613 48.7513 171.888Z" fill="#F4A261"/>
<path d="M71.6023 178.261C71.6023 178.261 90.2345 191.705 92.5636 200.439C94.8926 209.173 102.462 301.169 102.462 301.169C102.462 301.169 98.9684 299.423 97.2216 302.334C95.4748 305.245 68.6911 182.866 71.6023 178.261Z" fill="#F4A261"/>
<path d="M20.364 300.005L24.5377 313.625C24.5377 313.625 25.6042 339.016 39.5783 335.523C53.5524 332.029 35.5025 302.334 35.5025 302.334L31.4268 295.929L20.364 300.005Z" fill="#A0616A"/>
<path d="M79.4538 149.237C79.4538 149.237 81.5339 146.117 80.7338 142.757C80.2558 140.849 80.067 138.88 80.1738 136.916C80.1738 136.916 78.4937 131.476 76.8137 128.436C75.1336 125.396 75.9336 124.116 70.6534 123.156C65.3732 122.196 67.5333 115.316 53.6128 122.756C53.1431 123.412 52.4897 123.914 51.7351 124.198C50.9804 124.483 50.1584 124.538 49.3726 124.356C46.4925 123.796 45.4525 127.796 45.4525 127.796C45.4525 127.796 43.5324 126.676 42.8123 128.276C42.0923 129.876 36.9584 127.316 36.9584 138.116C36.9584 148.917 42.8006 158.564 42.8006 158.564C42.8006 158.564 42.3723 140.397 51.8927 138.556C61.413 136.716 71.6534 131.356 74.1335 138.236C75.4723 142.098 77.2578 145.79 79.4538 149.237Z" fill="#2F2E41"/>
<path d="M42.5919 153.556C41.5548 153.556 40.7141 152.435 40.7141 151.053C40.7141 149.67 41.5548 148.549 42.5919 148.549C43.629 148.549 44.4697 149.67 44.4697 151.053C44.4697 152.435 43.629 153.556 42.5919 153.556Z" fill="#A0616A"/>
<path d="M23.2746 184.136C23.2746 184.136 13.9585 181.807 11.0472 197.528C8.13593 213.249 4.64239 258.083 4.64239 258.083L18.6165 305.246C18.6165 305.246 32.5907 297.676 35.502 298.841L24.5053 257.896L33.7552 216.16C33.7552 216.16 25.6036 184.136 23.2746 184.136Z" fill="#F4A261"/>
<path opacity="0.15" d="M36.8203 216.957L24.593 257.714L36.8203 299.055L29.8333 257.714L36.8203 216.957Z" fill="black"/>
</g>
<defs>
<clipPath id="clip0">
<rect width="600" height="503.784" transform="matrix(-1 0 0 1 600 0)" fill="white"/>
</clipPath>
</defs>
</svg>
