<svg width="700" height="568" viewBox="0 0 700 568" fill="none" xmlns="http://www.w3.org/2000/svg">
<g clip-path="url(#clip0)">
<path d="M517.003 0.631913C451.707 9.56973 398.691 71.7202 339.862 110.505C326.753 119.147 313.013 126.758 298.486 129.012C250.364 136.482 205.991 84.7162 157.644 88.9428C118.459 92.3691 85.2287 133.878 71.1304 182.702C57.0321 231.527 59.1946 286.136 67.0231 337.39C79.2819 417.43 106.439 496.172 153.712 548.233C161.513 556.826 170.226 564.866 180.245 566.817C196.941 570.11 212.422 555.963 226.872 544.266C292.083 491.453 374.525 478.043 447.333 508.402C471.991 518.681 495.575 533.678 520.808 541.078C569.401 555.303 624.39 537.329 657.382 487.718C690.374 438.107 695.738 356.565 664.305 305.17C651.183 283.721 633.096 268.577 619.321 247.879C584.707 195.923 597.485 143.391 601.768 82.4624C605.988 22.4253 555.148 -4.58474 517.003 0.631913Z" fill="#F4A261" fill-opacity="0.25"/>
<g opacity="0.2">
<path opacity="0.2" d="M220.194 382.648C220.194 382.648 200.88 401.963 211.769 430.623C222.659 459.283 193.079 506.942 193.079 506.942L193.985 506.794C233.654 499.773 253.362 454.424 231.302 420.723C223.115 408.219 216.382 393.517 220.194 382.648Z" fill="#00BFA6"/>
<path opacity="0.1" d="M220.194 382.999C220.194 382.999 200.88 402.314 211.769 430.974C222.659 459.634 193.079 507.293 193.079 507.293L193.985 507.145C233.654 500.124 253.362 454.775 231.302 421.074C223.115 408.535 216.382 393.839 220.194 382.999Z" fill="black"/>
<path opacity="0.2" d="M220.195 382.648C220.195 382.648 209.291 406.323 220.195 425.638C231.099 444.953 222.063 499.155 193.094 506.942" stroke="#535461" stroke-miterlimit="10"/>
<path opacity="0.2" d="M254.591 460.792C254.591 460.792 232.552 457.282 230.544 477.032C228.536 496.782 188.165 499.5 188.165 499.5L188.923 500.005C222.259 521.89 254.12 513.942 249.304 484.889C247.528 474.111 247.675 463.257 254.591 460.792Z" fill="#00BFA6"/>
<path opacity="0.2" d="M254.591 460.792C254.591 460.792 237.48 464.549 238.892 480.1C240.303 495.652 213.49 514.3 188.165 499.521" stroke="#535461" stroke-miterlimit="10"/>
</g>
<g opacity="0.2">
<path opacity="0.2" d="M449.278 352.233C449.278 352.233 433.228 368.283 442.257 392.091C451.286 415.9 426.726 455.506 426.726 455.506L427.477 455.379C460.434 449.559 476.814 411.849 458.489 383.863C451.707 373.45 446.111 361.241 449.278 352.233Z" fill="#00BFA6"/>
<path opacity="0.1" d="M449.278 352.5C449.278 352.5 433.228 368.55 442.257 392.358C451.286 416.167 426.726 455.772 426.726 455.772L427.512 455.667C460.469 449.847 476.85 412.136 458.525 384.15C451.707 373.717 446.111 361.508 449.278 352.5Z" fill="black"/>
<path opacity="0.2" d="M449.278 352.233C449.278 352.233 440.22 371.892 449.278 387.949C458.335 404.006 450.829 449.032 426.761 455.506" stroke="#535461" stroke-miterlimit="10"/>
<path opacity="0.2" d="M477.86 417.142C477.86 417.142 459.528 414.243 457.878 430.637C456.228 447.031 422.668 449.348 422.668 449.348L423.3 449.769C450.998 467.954 477.474 461.354 473.479 437.209C471.998 428.201 472.117 419.158 477.86 417.142Z" fill="#00BFA6"/>
<path opacity="0.2" d="M477.86 417.142C477.86 417.142 463.65 420.26 464.815 433.186C465.981 446.111 443.71 461.607 422.689 449.334" stroke="#535461" stroke-miterlimit="10"/>
</g>
<g opacity="0.2">
<path opacity="0.2" d="M516.68 251.129C516.68 251.129 500.63 267.18 509.659 290.988C518.688 314.796 494.128 354.402 494.128 354.402L494.88 354.276C527.837 348.455 544.217 310.745 525.892 282.759C519.109 272.347 513.514 260.137 516.68 251.129Z" fill="#00BFA6"/>
<path opacity="0.1" d="M516.68 251.396C516.68 251.396 500.63 267.446 509.659 291.255C518.688 315.063 494.128 354.669 494.128 354.669L494.915 354.564C527.872 348.743 544.252 311.033 525.927 283.047C519.109 272.614 513.514 260.404 516.68 251.396Z" fill="black"/>
<path opacity="0.2" d="M516.68 251.129C516.68 251.129 507.623 270.788 516.68 286.846C525.737 302.903 518.232 347.929 494.163 354.402" stroke="#535461" stroke-miterlimit="10"/>
<path opacity="0.2" d="M545.263 316.039C545.263 316.039 526.931 313.139 525.281 329.534C523.631 345.928 490.07 348.245 490.07 348.245L490.702 348.666C518.4 366.851 544.877 360.251 540.882 336.105C539.4 327.097 539.519 318.054 545.263 316.039Z" fill="#00BFA6"/>
<path opacity="0.2" d="M545.263 316.039C545.263 316.039 531.052 319.157 532.218 332.082C533.383 345.008 511.112 360.504 490.091 348.231" stroke="#535461" stroke-miterlimit="10"/>
</g>
<path d="M689.637 415.914V406.344L493.545 351.348L458.475 347.36V356.129L653.766 426.27L689.637 415.914Z" fill="#DFE5EE"/>
<path opacity="0.05" d="M689.637 415.914V406.344L493.545 351.348L458.475 347.36V356.129L653.766 426.27L689.637 415.914Z" fill="black"/>
<path d="M689.637 406.344L493.545 341.778L459.269 347.36L653.766 416.707L689.637 406.344Z" fill="#DFE5EE"/>
<path d="M646.59 260.474H659.348V408.738H646.59V260.474Z" fill="#DFE5EE"/>
<path d="M493.545 226.198H506.303V356.129H493.545V226.198Z" fill="#DFE5EE"/>
<path d="M461.663 185.546V225.404L620.894 260.973L639.731 265.186L686.449 275.619L700 271.631V225.404L627.746 211.629L609.765 208.203L478.401 183.158L461.663 185.546Z" fill="#DFE5EE"/>
<path opacity="0.05" d="M461.663 185.546V225.404L620.894 260.973L639.731 265.186L686.449 275.619L700 271.631V225.404L627.746 211.629L609.765 208.203L478.401 183.158L461.663 185.546Z" fill="black"/>
<path opacity="0.05" d="M646.59 260.474V268.31L659.348 271.16V260.474H646.59Z" fill="black"/>
<path opacity="0.05" d="M493.545 226.198V234.124L506.303 236.968V226.198H493.545Z" fill="black"/>
<path d="M461.663 185.546V225.404L526.313 239.846L545.115 244.045L620.894 260.973L639.731 265.186L686.449 275.619L685.649 230.186L620.725 217.246L602.562 213.63H602.555L528.335 198.836L510.206 195.221L461.663 185.546Z" fill="#DFE5EE"/>
<path d="M602.555 213.63L620.894 260.973L639.731 265.186L620.725 217.246L627.746 211.629L609.766 208.203L602.562 213.63H602.555Z" fill="#2A9D8F"/>
<path d="M509.294 195.909L526.313 239.846L545.115 244.045L527.464 199.525L528.335 198.836L534.485 193.908L516.504 190.481L510.207 195.221L509.301 195.909H509.294Z" fill="#2A9D8F"/>
<path opacity="0.05" d="M656.554 406.147L643.803 403.156V406.147L656.554 409.138V406.147Z" fill="black"/>
<path opacity="0.05" d="M504.309 353.539L491.558 350.548V353.539L504.309 356.53V353.539Z" fill="black"/>
<path d="M236.799 244.691C257.125 255.398 278.167 243.287 278.167 243.287C278.497 243.905 278.875 244.497 279.297 245.056C279.557 244.86 279.824 244.656 280.091 244.438C288.825 237.298 298.493 220.44 298.493 220.44L317.33 185.117C319.638 180.872 321.378 176.342 322.505 171.644C325.608 158.178 335.515 157.602 335.515 157.602H347.121C352.738 157.602 360.854 158.781 368.886 160.41C368.673 160.191 368.533 159.912 368.486 159.61L368.872 159.687L364.561 155.474C364.561 155.474 352.225 150.475 350.772 139.768L344.242 133.344C344.242 133.344 344.032 132.782 343.737 131.792L341.567 129.061C332.117 117.231 331.436 117.034 331.436 117.034L302.783 100.078C302.783 100.078 292.497 98.6179 296.787 69.8526C301.077 41.0873 298.191 37.5557 298.191 37.5557C298.191 37.5557 290.398 8.73421 305.339 12.322C320.279 15.9097 313.525 40.5466 313.525 40.5466L312.486 45.988C311.183 52.8024 311.255 59.8084 312.697 66.5948C314.248 73.9318 315.982 82.996 315.547 85.1585C314.782 88.9288 323.411 93.7031 323.411 93.7031L328.29 96.5537C333.456 99.5692 339.541 100.607 345.415 99.4744L345.675 99.0812L348.595 96.8907C348.682 97.1908 348.753 97.4955 348.806 97.8034L350 96.8907V96.9609C350 96.7081 350 96.4694 349.943 96.2026C349.601 93.5024 348.967 90.8471 348.055 88.2829C347.977 88.0441 347.879 87.7914 347.795 87.5807C342.336 87.2498 337.207 84.8578 333.446 80.8888C329.684 76.9197 327.57 71.67 327.532 66.2016C327.531 63.9495 327.892 61.7118 328.599 59.5737C328.047 59.6764 327.481 59.6764 326.928 59.5737C324.302 59.1525 321.515 57.8044 320.153 55.4804C319.433 54.2042 319.102 52.7453 319.2 51.2832C319.299 49.8211 319.823 48.4198 320.708 47.2518C321.043 46.8248 321.419 46.4321 321.831 46.0792C324.323 43.2708 328.494 42.5687 331.808 40.6801C334.96 38.9037 337.355 36.0672 340.289 33.9539C345.836 29.9448 352.927 28.7372 359.696 27.6349C362.602 27.1645 365.558 26.6941 368.479 27.0803C372.172 27.5717 375.57 29.4183 378.463 31.7282C379.489 32.4652 380.348 33.4102 380.983 34.5015C382.058 36.6078 381.587 39.0792 381.777 41.4102C382.24 47.0833 386.692 51.7031 391.606 54.7152C394.625 56.5617 397.925 58.0361 400.46 60.5145C402.995 62.993 404.49 66.9037 402.91 70.0351C402.075 71.6921 400.425 73.0752 400.411 74.9499C400.466 75.7743 400.706 76.5758 401.113 77.2949C402.799 80.8158 405.077 84.0217 407.846 86.7733C418.097 84.3019 429.162 89.7362 429.162 89.7362L462.547 91.1404C462.547 91.1404 471.983 86.8576 484.312 113.271C496.641 139.684 501.009 141.116 501.009 141.116C501.009 141.116 523.476 161.105 508.992 166.104C494.507 171.103 486.524 146.824 486.524 146.824L478.485 131.884C478.485 131.884 460.343 114.745 458.889 111.179C457.436 107.612 448.73 107.612 448.73 107.612L413.337 109.016C413.29 109.302 413.262 109.59 413.252 109.88C413.168 113.84 416.882 116.901 420.617 118.368C422.976 119.309 425.673 120.018 427.112 122.082C428.551 124.146 428.207 127.144 426.761 129.251C426.32 129.88 425.803 130.453 425.223 130.957C423.705 132.522 421.852 133.722 419.803 134.467C418.104 135.145 416.336 135.634 414.53 135.928C415.264 138.958 416.263 141.918 417.514 144.774L416.11 145.378L416.573 146.614C418.553 151.873 422.632 162.25 426.241 168.527C426.276 168.527 432.799 174.059 437.861 179.058C441.73 182.864 451.054 219.499 423.77 220.159L417.542 224.751H417.416C411.876 232.573 393.586 245.421 393.586 245.421L425.932 247.331C427.546 247.429 429.152 247.624 430.742 247.914C431.271 248.007 431.8 248.113 432.329 248.23C438.03 249.479 444.342 249.037 447.726 248.637C449.965 244.424 460.364 246.137 460.364 246.137C460.364 246.137 461.817 267.559 459.662 279.691C457.506 291.823 449.502 283.974 449.502 283.974C450.955 273.267 438.97 265.389 438.97 265.389C437.447 264.624 435.642 263.697 433.522 262.581C426.796 258.972 394.801 264.49 384.908 266.316C382.73 266.721 380.517 266.91 378.301 266.878C349.943 266.414 357.308 252.583 357.308 252.583L363.017 241.349C363.953 239.481 364.787 237.564 365.516 235.606C370.557 222.266 378.393 214.922 384.396 210.99C384.073 210.583 383.75 210.176 383.434 209.747C383.434 209.747 383.911 209.635 384.634 209.417C379.565 206.826 376.209 204.755 376.209 204.755C376.209 204.755 342.824 184.766 344.27 189.765C345.717 194.764 337.011 214.037 321.045 227.602C320.581 227.995 320.132 228.395 319.683 228.802L319.247 229.203L318.356 230.045L317.871 230.516L317.043 231.344L316.579 231.821L315.702 232.762L315.351 233.141C314.953 233.581 314.56 234.026 314.171 234.475L313.918 234.777C313.619 235.133 313.322 235.489 313.027 235.845L312.626 236.343L311.924 237.242L311.517 237.768L310.815 238.688L310.45 239.172L309.635 240.303L309.439 240.57C309.106 241.038 308.781 241.506 308.463 241.974L308.224 242.332L307.522 243.392L307.227 243.849L306.602 244.831L306.328 245.267L305.676 246.341L305.486 246.65C304.92 247.586 304.381 248.522 303.871 249.458L303.787 249.613L303.12 250.82L303.015 251.017L302.376 252.225L302.334 252.309C300.534 255.745 298.924 259.277 297.51 262.89C298.326 263.086 299.154 263.227 299.988 263.311C304.342 282.591 292.729 282.591 292.729 282.591C292.729 282.591 249.9 276.166 233.934 259.744C217.968 243.322 236.799 244.691 236.799 244.691Z" fill="url(#paint0_linear)"/>
<path d="M392.126 208.174C392.126 208.174 374.475 212.752 365.671 236.413C364.964 238.327 364.155 240.202 363.249 242.03L357.723 253.109C357.723 253.109 350.597 266.709 378.028 267.151C380.171 267.182 382.311 266.996 384.417 266.597C393.987 264.806 424.936 259.379 431.458 262.925C435.103 264.99 438.853 266.864 442.692 268.542L450.415 260.116L447.607 248.883C447.607 248.883 438.332 250.624 430.321 248.833C428.286 248.375 426.217 248.079 424.135 247.949L392.828 246.088C392.828 246.088 417.402 228.536 417.402 222.217C417.402 215.898 392.126 208.174 392.126 208.174Z" fill="#F8BDC5"/>
<path opacity="0.05" d="M444.784 251.003C444.784 251.003 452.508 263.599 436.717 265.747C436.717 265.747 448.295 273.47 446.891 284.002C446.891 284.002 454.614 291.725 456.72 279.789C458.827 267.854 457.422 246.79 457.422 246.79C457.422 246.79 444.784 244.684 444.784 251.003Z" fill="black"/>
<path opacity="0.05" d="M392.126 208.174C392.126 208.174 374.475 212.752 365.671 236.413C364.964 238.327 364.155 240.202 363.249 242.03L357.723 253.109C357.723 253.109 350.597 266.709 378.028 267.151C380.171 267.182 382.311 266.996 384.417 266.597C393.987 264.806 424.936 259.379 431.458 262.925C435.103 264.99 438.853 266.864 442.692 268.542L450.415 260.116L447.607 248.883C447.607 248.883 438.332 250.624 430.321 248.833C428.286 248.375 426.217 248.079 424.135 247.949L392.828 246.088C392.828 246.088 417.402 228.536 417.402 222.217C417.402 215.898 392.126 208.174 392.126 208.174Z" fill="black"/>
<path opacity="0.05" d="M446.891 261.535L444.083 250.301C444.083 250.301 434.808 252.042 426.797 250.252C424.762 249.793 422.693 249.497 420.611 249.367L389.318 247.492C389.318 247.492 413.892 229.94 413.892 223.621C413.892 217.302 388.616 209.579 388.616 209.579L388.427 209.635C389.615 209.042 390.853 208.553 392.127 208.174C392.127 208.174 417.403 215.898 417.403 222.217C417.403 228.536 392.829 246.088 392.829 246.088L424.115 247.963C426.197 248.093 428.265 248.389 430.3 248.848C438.311 250.638 447.586 248.897 447.586 248.897L450.395 260.13L442.671 268.556C442.671 268.556 442.152 268.345 441.085 267.854L446.891 261.535Z" fill="black"/>
<path d="M444.784 251.003C444.784 251.003 452.508 263.599 436.717 265.747C436.717 265.747 448.295 273.47 446.891 284.002C446.891 284.002 454.614 291.725 456.72 279.789C458.827 267.854 457.422 246.79 457.422 246.79C457.422 246.79 444.784 244.684 444.784 251.003Z" fill="#F6E972"/>
<path d="M465.665 454.53V444.96L269.574 389.964L234.504 385.976V394.745L429.794 464.886L465.665 454.53Z" fill="#DFE5EE"/>
<path opacity="0.05" d="M465.665 454.53V444.96L269.574 389.964L234.504 385.976V394.745L429.794 464.886L465.665 454.53Z" fill="black"/>
<path d="M465.665 444.96L269.574 380.394L235.297 385.976L429.794 455.323L465.665 444.96Z" fill="#DFE5EE"/>
<path d="M422.619 299.09H435.376V447.354H422.619V299.09Z" fill="#DFE5EE"/>
<path d="M269.574 264.813H282.331V394.745H269.574V264.813Z" fill="#DFE5EE"/>
<path d="M237.691 224.161V264.02L396.922 299.589L415.76 303.801L462.478 314.235L476.028 310.247V264.02L403.782 250.245L385.794 246.818L254.429 221.774L237.691 224.161Z" fill="#DFE5EE"/>
<path opacity="0.05" d="M237.691 224.161V264.02L396.922 299.589L415.76 303.801L462.478 314.235L476.028 310.247V264.02L403.782 250.245L385.794 246.818L254.429 221.774L237.691 224.161Z" fill="black"/>
<path opacity="0.05" d="M422.619 299.09V306.926L435.376 309.776V299.09H422.619Z" fill="black"/>
<path opacity="0.05" d="M269.574 264.813V272.74L282.331 275.584V264.813H269.574Z" fill="black"/>
<path d="M237.691 224.161V264.02L302.341 278.462L321.144 282.661L396.922 299.589L415.759 303.801L462.478 314.235L461.677 268.801L396.753 255.862L378.59 252.246H378.583L304.363 237.452L286.235 233.836L237.691 224.161Z" fill="#DFE5EE"/>
<path d="M378.583 252.246L396.922 299.589L415.76 303.801L396.754 255.862L403.782 250.245L385.794 246.818L378.59 252.246H378.583Z" fill="#2A9D8F"/>
<path d="M285.322 234.525L302.341 278.462L321.144 282.661L303.493 238.14L304.363 237.452L310.514 232.524L292.533 229.097L286.235 233.836L285.329 234.525H285.322Z" fill="#2A9D8F"/>
<path opacity="0.05" d="M432.582 444.763L419.832 441.772V444.763L432.582 447.754V444.763Z" fill="black"/>
<path opacity="0.05" d="M280.337 392.154L267.587 389.164V392.154L280.337 395.138V392.154Z" fill="black"/>
<path d="M304.974 103.139L332.693 119.814C332.693 119.814 333.353 120.011 342.522 131.645L345.815 135.858C352.78 144.809 367.258 147.793 367.258 147.793L376.441 133.667L378.379 116.508L376.343 109.578L374.728 104.087L360.602 106.109L354.915 109.178L347.893 102.156C347.346 102.304 346.791 102.437 346.236 102.543C340.554 103.663 334.657 102.651 329.674 99.6991L324.956 96.8907C324.956 96.8907 316.615 92.1936 317.352 88.4654C317.773 86.3591 316.095 77.4283 314.593 70.2107C313.198 63.5349 313.129 56.6503 314.389 49.9479L315.393 44.5978C315.393 44.5978 321.916 20.3611 307.473 16.8506C293.031 13.34 300.557 41.663 300.557 41.663C300.557 41.663 303.324 45.1314 299.153 73.4193C294.983 101.707 304.974 103.139 304.974 103.139Z" fill="#F8BDC5"/>
<path d="M350.667 99.3761C351.453 106.804 347.894 107.801 347.894 107.801L345.787 116.227V125.354L352.106 135.886H367.553L380.893 129.567V100.078L382.999 93.0572C381.82 92.9815 380.648 92.8291 379.488 92.6008C372.713 91.2457 368.873 87.4825 366.71 83.3962C363.34 77 364.042 69.8596 364.042 69.8596C364.042 69.8596 335.958 62.1364 345.787 83.9017C347.093 86.8014 348.09 89.3501 348.842 91.6249C349.722 94.137 350.334 96.7352 350.667 99.3761V99.3761Z" fill="#F8BDC5"/>
<path d="M368.542 161.014C368.588 161.325 368.734 161.613 368.957 161.836C369.322 162.26 369.627 162.732 369.862 163.24C373.148 169.439 379.488 191.324 379.488 191.324L413.891 178.686L414.39 178.56L427.934 175.176C424.093 172.43 417.676 155.966 415.064 148.903C414.362 146.93 413.891 145.687 413.891 145.687L377.382 149.198C377.382 149.198 367.918 157.482 368.542 161.014Z" fill="#F8BDC5"/>
<path d="M383 90.9228C383 90.9228 393.531 95.1354 404.063 90.9228C414.594 86.7101 427.232 93.0291 427.232 93.0291L459.529 94.4333C459.529 94.4333 468.656 90.2207 480.592 116.199C492.528 142.177 496.741 143.581 496.741 143.581C496.741 143.581 518.506 163.24 504.464 168.154C490.422 173.069 482.699 149.198 482.699 149.198L474.975 134.453C474.975 134.453 457.423 117.603 456.019 114.092C454.614 110.582 446.189 110.582 446.189 110.582L411.084 111.986L411.301 122.251L400.552 131.645L390.723 123.22L383 107.773V90.9228Z" fill="#F8BDC5"/>
<path opacity="0.1" d="M345.787 83.9017C347.093 86.8014 348.09 89.3501 348.841 91.6249C349.22 91.6249 349.614 91.6249 350 91.6249C353.234 91.6283 356.425 90.8849 359.324 89.4528C362.224 88.0206 364.754 85.9383 366.717 83.3681C363.34 77 364.042 69.8596 364.042 69.8596C364.042 69.8596 335.958 62.1364 345.787 83.9017Z" fill="black"/>
<path d="M350 90.9228C338.367 90.9228 328.937 81.4925 328.937 69.8596C328.937 58.2267 338.367 48.7964 350 48.7964C361.633 48.7964 371.063 58.2267 371.063 69.8596C371.063 81.4925 361.633 90.9228 350 90.9228Z" fill="#F8BDC5"/>
<path opacity="0.1" d="M368.543 161.014C368.589 161.325 368.734 161.613 368.957 161.835C369.322 162.26 369.627 162.732 369.863 163.24C382.353 162.692 409.686 151.227 415.064 148.931C414.362 146.958 413.892 145.715 413.892 145.715L377.382 149.226C377.382 149.226 367.918 157.482 368.543 161.014Z" fill="black"/>
<path opacity="0.1" d="M342.495 131.645L345.788 135.858C352.753 144.809 367.23 147.793 367.23 147.793L376.414 133.667L378.352 116.508L377.734 99.6991C375.775 108.826 370.298 127.868 361.936 129.539C347.957 132.347 348.961 112.316 349.649 103.912C349.754 102.614 349.636 101.308 349.298 100.05L346.49 102.156L346.237 102.543C339.546 112.934 341.049 125.305 342.495 131.645Z" fill="black"/>
<path d="M379.489 89.5186H386.51C386.51 89.5186 379.489 134.453 412.488 121.815C412.488 121.815 409.679 132.347 415.998 147.091C415.998 147.091 382.297 161.835 368.957 161.835L364.744 157.623C364.744 157.623 352.808 152.708 351.404 142.177L345.085 135.858C345.085 135.858 338.064 116.901 347.894 102.156L350.702 100.05C351.04 101.308 351.159 102.614 351.053 103.912C350.351 112.337 349.361 132.333 363.34 129.539C380.893 126.028 379.489 89.5186 379.489 89.5186Z" fill="#F4A261"/>
<path d="M427.231 217.302L415.998 225.727C415.998 225.727 397.743 231.344 382.999 210.983C382.999 210.983 392.126 208.877 390.722 203.962C389.318 199.047 427.231 217.302 427.231 217.302Z" fill="#264653"/>
<path opacity="0.05" d="M427.231 217.302L415.998 225.727C415.998 225.727 397.743 231.344 382.999 210.983C382.999 210.983 392.126 208.877 390.722 203.962C389.318 199.047 427.231 217.302 427.231 217.302Z" fill="black"/>
<path opacity="0.1" d="M368.543 161.716C368.589 162.027 368.734 162.316 368.957 162.538C371.766 165.346 379.489 192.026 379.489 192.026L413.892 179.388L414.391 179.262C411.725 177.577 408.903 176.153 405.965 175.007C403.571 174.08 401.163 173.097 399.078 172.157C397.388 171.434 395.765 170.564 394.226 169.559C391.284 167.452 379.987 164.082 368.543 161.716Z" fill="black"/>
<path d="M288.917 261.535L299.448 264.343C299.448 264.343 299.687 263.641 300.151 262.419C302.397 256.704 309.882 239.524 322.618 228.536C338.064 215.196 346.49 196.239 345.085 191.324C343.681 186.409 375.978 206.068 375.978 206.068C375.978 206.068 399.393 220.637 414.868 220.658C417.18 220.724 419.48 220.298 421.615 219.408C427.583 216.719 429.998 212.008 430.806 207.472C431.284 204.602 431.156 201.662 430.43 198.844C429.705 196.025 428.398 193.39 426.593 191.106C421.243 184.19 414.105 178.866 405.951 175.709C403.557 174.782 401.149 173.799 399.063 172.859C397.374 172.136 395.75 171.266 394.212 170.261C389.297 166.75 361.213 159.729 347.873 159.729H336.639C336.639 159.729 327.062 160.291 324.057 173.533C322.974 178.139 321.298 182.585 319.072 186.76L300.853 221.515C300.853 221.515 291.501 238.091 283.054 245.112C280.646 247.12 278.308 248.349 276.279 248.195C267.152 247.492 288.917 261.535 288.917 261.535Z" fill="#F8BDC5"/>
<path opacity="0.1" d="M321.803 59.342C321.107 58.0847 320.787 56.6536 320.882 55.2195C320.976 53.7853 321.481 52.4087 322.337 51.2537C324.696 48.1855 328.958 47.4834 332.321 45.5597C335.375 43.8114 337.685 41.024 340.521 38.9458C345.885 35.007 352.724 33.8134 359.289 32.7392C362.097 32.2758 364.962 31.8124 367.784 32.1986C371.358 32.683 374.644 34.5015 377.445 36.7693C378.439 37.4966 379.269 38.4247 379.881 39.4935C380.921 41.5436 380.464 44.001 380.647 46.2898C381.096 51.8716 385.407 56.4142 390.16 59.3701C393.081 61.1885 396.297 62.6349 398.726 65.0712C401.155 67.5075 402.623 71.355 401.092 74.4303C400.278 76.0591 398.684 77.4212 398.677 79.2467C398.723 80.056 398.949 80.845 399.337 81.5566C401 85.0931 403.266 88.3125 406.035 91.0702C408.52 93.5416 411.49 95.7602 412.782 99.025C414.025 102.163 413.484 105.744 412.34 108.925C411.806 110.441 411.139 111.958 411.111 113.559C411.034 117.455 414.622 120.446 418.238 121.907C420.519 122.826 423.152 123.529 424.521 125.558C425.891 127.587 425.582 130.536 424.184 132.579C422.787 134.622 420.533 135.991 418.216 136.925C413.915 138.736 409.148 139.125 404.61 138.034C402.359 137.472 400.25 136.446 398.418 135.021C396.587 133.597 395.072 131.806 393.973 129.763C391.866 125.663 391.726 120.636 388.805 117.055C383.659 110.799 372.804 112.379 367.433 106.306C363.122 101.426 364.295 94.0331 364.625 87.5316C364.815 83.9096 364.665 80.2778 364.175 76.684C363.824 74.1284 363.178 71.3831 361.17 69.7683C359.548 68.4624 357.358 68.1675 355.294 67.9147C350.983 67.3741 346.019 66.328 344.06 62.4453C343.246 60.8305 343 58.7944 341.532 57.7412C339.503 56.2808 336.66 57.7412 334.89 59.4965C332.939 61.4413 331.303 63.8355 328.333 63.351C325.812 62.9578 323.116 61.6309 321.803 59.342Z" fill="black"/>
<path d="M322.562 58.5838C321.867 57.3258 321.548 55.8943 321.644 54.4602C321.74 53.026 322.246 51.6497 323.102 50.4955C325.462 47.4273 329.723 46.7252 333.086 44.8014C336.141 43.0532 338.451 40.2658 341.287 38.1876C346.651 34.2488 353.49 33.0552 360.054 31.981C362.863 31.5176 365.727 31.0542 368.55 31.4403C372.124 31.9248 375.409 33.7432 378.211 36.011C379.205 36.7384 380.035 37.6665 380.647 38.7352C381.686 40.7854 381.23 43.2427 381.412 45.5316C381.862 51.1133 386.173 55.656 390.926 58.6118C393.847 60.4303 397.062 61.8766 399.492 64.313C401.921 66.7493 403.388 70.5968 401.858 73.672C401.043 75.3009 399.45 76.663 399.442 78.4885C399.489 79.2978 399.714 80.0868 400.102 80.7984C401.765 84.3349 404.032 87.5543 406.801 90.3119C409.286 92.7834 412.256 95.002 413.548 98.2668C414.791 101.405 414.25 104.986 413.105 108.167C412.572 109.683 411.905 111.2 411.877 112.8C411.8 116.697 415.387 119.688 419.003 121.148C421.285 122.068 423.918 122.77 425.287 124.799C426.656 126.828 426.347 129.777 424.95 131.82C423.553 133.864 421.299 135.233 418.982 136.167C414.681 137.978 409.913 138.367 405.375 137.276C403.124 136.713 401.016 135.687 399.184 134.263C397.352 132.839 395.838 131.048 394.738 129.005C392.632 124.905 392.492 119.878 389.571 116.297C384.424 110.041 373.57 111.621 368.199 105.548C363.888 100.668 365.06 93.2748 365.39 86.7733C365.581 83.1514 365.431 79.5195 364.941 75.9258C364.59 73.3701 363.944 70.6249 361.936 69.01C360.314 67.7041 358.124 67.4092 356.059 67.1565C351.748 66.6159 346.785 65.5697 344.826 61.6871C344.011 60.0722 343.765 58.0361 342.298 56.983C340.269 55.5226 337.425 56.983 335.656 58.7382C333.704 60.6831 332.068 63.0772 329.098 62.5928C326.578 62.1926 323.875 60.8656 322.562 58.5838Z" fill="#6E464E"/>
<path opacity="0.1" d="M395.286 141.825C395.286 141.825 387.563 148.144 377.733 147.442Z" fill="black"/>
<path opacity="0.05" d="M274.58 248.321C278.61 252.281 287.513 258.024 287.513 258.024L298.044 260.833C298.044 260.833 305.768 238.365 321.214 225.025C336.66 211.685 345.086 192.728 343.681 187.813C342.277 182.899 374.574 202.558 374.574 202.558C374.574 202.558 397.989 217.126 413.464 217.147C415.776 217.213 418.076 216.787 420.211 215.898C426.179 213.209 428.594 208.497 429.402 203.962C429.947 200.845 429.749 197.643 428.826 194.617C430.864 198.573 431.559 203.086 430.806 207.472C429.998 212.008 427.583 216.719 421.615 219.408C419.48 220.298 417.18 220.724 414.868 220.658C399.422 220.658 375.978 206.068 375.978 206.068C375.978 206.068 343.681 186.409 345.086 191.324C346.49 196.239 338.065 215.196 322.618 228.536C307.172 241.876 299.449 264.343 299.449 264.343L288.917 261.535C288.917 261.535 270.74 249.802 274.58 248.321Z" fill="black"/>
<path opacity="0.1" d="M398.445 173.069L399.639 173.624C408.352 177.625 415.489 184.407 419.93 192.904C429.338 211.215 416.904 219.464 414.868 220.658C417.18 220.724 419.48 220.298 421.615 219.408C427.583 216.719 429.998 212.008 430.806 207.472C431.284 204.602 431.156 201.662 430.43 198.844C429.705 196.025 428.398 193.39 426.593 191.106C421.243 184.19 414.105 178.866 405.951 175.709C403.557 174.782 401.149 173.799 399.063 172.859L398.445 173.069Z" fill="black"/>
<path d="M399.849 173.069C399.849 173.069 414.594 167.831 424.423 170.45C424.423 170.45 430.742 175.878 435.657 180.792C439.659 184.794 449.699 225.727 415.998 220.812C415.998 220.812 431.557 212.794 421.334 192.904C416.893 184.406 409.756 177.625 401.043 173.624L399.849 173.069Z" fill="#264653"/>
<path opacity="0.1" d="M288.917 261.535L299.448 264.343C299.448 264.343 299.687 263.641 300.15 262.419C297.7 261.773 294.534 260.313 294.534 257.322C294.534 257.322 286.494 249.816 283.054 245.112C280.646 247.12 278.308 248.349 276.279 248.195C267.151 247.492 288.917 261.535 288.917 261.535Z" fill="black"/>
<path d="M293.832 258.024C293.832 258.024 283.3 248.195 281.194 243.982C281.194 243.982 260.833 255.918 241.174 245.386C241.174 245.386 222.919 243.982 238.365 260.13C253.812 276.279 295.236 282.598 295.236 282.598C295.236 282.598 306.47 282.598 302.257 263.641C302.257 263.641 293.832 262.939 293.832 258.024Z" fill="#F6E972"/>
<path d="M231.161 503.677V494.107L35.0699 439.111L-0.000337561 435.123V443.893L195.291 514.033L231.161 503.677Z" fill="#DFE5EE"/>
<path opacity="0.05" d="M231.161 503.677V494.107L35.0699 439.111L-0.000337561 435.123V443.893L195.291 514.033L231.161 503.677Z" fill="black"/>
<path d="M231.161 494.107L35.0699 429.542L0.793066 435.123L195.291 504.47L231.161 494.107Z" fill="#DFE5EE"/>
<path d="M188.115 348.238H200.872V496.501H188.115V348.238Z" fill="#DFE5EE"/>
<path d="M35.0699 313.961H47.8271V443.893H35.0699V313.961Z" fill="#DFE5EE"/>
<path d="M3.18742 273.309V313.167L162.418 348.736L181.256 352.949L227.974 363.382L241.524 359.394V313.167L169.278 299.392L151.29 295.966L19.9256 270.922L3.18742 273.309Z" fill="#DFE5EE"/>
<path opacity="0.05" d="M3.18742 273.309V313.167L162.418 348.736L181.256 352.949L227.974 363.382L241.524 359.394V313.167L169.278 299.392L151.29 295.966L19.9256 270.922L3.18742 273.309Z" fill="black"/>
<path opacity="0.05" d="M188.115 348.238V356.073L200.872 358.924V348.238H188.115Z" fill="black"/>
<path opacity="0.05" d="M35.0699 313.961V321.888L47.8271 324.731V313.961H35.0699Z" fill="black"/>
<path d="M3.18722 273.309V313.167L67.8372 327.61L86.6396 331.808L162.418 348.736L181.255 352.949L227.974 363.382L227.173 317.949L162.249 305.009L144.086 301.393H144.079L69.8593 286.6L51.7309 282.984L3.18722 273.309Z" fill="#DFE5EE"/>
<path d="M144.079 301.393L162.418 348.736L181.256 352.949L162.25 305.009L169.278 299.392L151.29 295.966L144.086 301.393H144.079Z" fill="#2A9D8F"/>
<path d="M50.8182 283.672L67.8372 327.61L86.6396 331.808L68.9887 287.288L69.8593 286.6L76.0098 281.671L58.0288 278.245L51.7309 282.984L50.8252 283.672H50.8182Z" fill="#2A9D8F"/>
<path opacity="0.05" d="M198.078 493.911L185.328 490.92V493.911L198.078 496.902V493.911Z" fill="black"/>
<path opacity="0.05" d="M45.834 441.302L33.0837 438.311V441.302L45.834 444.286V441.302Z" fill="black"/>
</g>
<defs>
<linearGradient id="paint0_linear" x1="370.67" y1="286.459" x2="370.67" y2="11.985" gradientUnits="userSpaceOnUse">
<stop stop-color="#808080" stop-opacity="0.25"/>
<stop offset="0.54" stop-color="#808080" stop-opacity="0.12"/>
<stop offset="1" stop-color="#808080" stop-opacity="0.1"/>
</linearGradient>
<clipPath id="clip0">
<rect width="700" height="567.302" transform="matrix(-1 0 0 1 700 0)" fill="white"/>
</clipPath>
</defs>
</svg>
