<svg width="737" height="603" viewBox="0 0 737 603" fill="none" xmlns="http://www.w3.org/2000/svg">
<path opacity="0.1" d="M368.5 603C572.017 603 737 591.135 737 576.499C737 561.863 572.017 549.997 368.5 549.997C164.983 549.997 0 561.863 0 576.499C0 591.135 164.983 603 368.5 603Z" fill="#00BFA6"/>
<path d="M679.198 556.872C679.203 558.966 679.015 561.055 678.636 563.104C678.566 563.489 678.489 563.907 678.412 564.236C676.418 573.383 670.796 580.072 664.086 580.498C663.861 580.498 663.636 580.498 663.384 580.498C656.288 580.498 650.286 573.495 648.307 563.85C648.251 563.593 648.202 563.336 648.152 563.047C647.774 560.999 647.586 558.91 647.591 556.816C647.591 543.75 654.659 533.165 663.384 533.165C672.108 533.165 679.198 543.822 679.198 556.872Z" fill="#3F3D56"/>
<path opacity="0.1" d="M679.198 556.872C679.203 558.966 679.015 561.055 678.636 563.104C678.566 563.489 678.489 563.907 678.412 564.236C678.173 564.236 677.942 564.236 677.71 564.236C675.972 564.129 674.244 563.86 672.544 563.433C671.038 563.965 669.498 564.368 667.939 564.637C666.744 564.843 665.54 564.972 664.332 565.023H663.11C661.664 565.023 660.22 564.913 658.787 564.694C656.469 564.339 654.193 563.693 651.999 562.766C650.798 563.224 649.575 563.599 648.335 563.891C648.279 563.634 648.23 563.377 648.181 563.087C647.802 561.039 647.614 558.95 647.619 556.856C647.619 543.79 654.687 533.205 663.412 533.205C672.137 533.205 679.198 543.822 679.198 556.872Z" fill="black"/>
<path d="M712.89 512.823C712.896 507.076 711.717 501.409 709.45 496.28L690.878 502.89L707.183 491.92C704.45 487.398 700.863 483.637 696.689 480.914C692.515 478.192 687.859 476.576 683.066 476.187C682.301 474.865 681.464 473.599 680.56 472.397L653.888 481.897L675.766 467.185C671.581 463.512 666.669 461.075 661.465 460.091C656.261 459.106 650.925 459.603 645.929 461.539C640.933 463.474 636.431 466.788 632.82 471.188C629.21 475.588 626.603 480.937 625.229 486.764L648.076 516.863L623.292 496.344C617.007 501.436 612.532 508.943 610.682 517.496C608.831 526.048 609.73 535.077 613.213 542.935C616.696 550.793 622.531 556.956 629.655 560.302C636.779 563.648 644.717 563.952 652.021 561.16C658.627 563.931 665.844 564.156 672.572 561.803C677.263 562.99 682.128 562.958 686.806 561.708C691.485 560.458 695.859 558.023 699.605 554.582C703.352 551.141 706.376 546.781 708.454 541.825C710.532 536.869 711.611 531.443 711.612 525.946C711.612 525.143 711.612 524.339 711.542 523.536C712.452 520.061 712.906 516.451 712.89 512.823Z" fill="#00BFA6"/>
<path opacity="0.1" d="M712.335 519.642C702.527 517.511 692.469 517.364 682.616 519.208C671.463 521.32 660.064 525.962 649.157 522.565C642.755 520.573 637.224 515.963 630.97 513.41C624.937 510.995 618.437 510.547 612.194 512.117C609.814 518.628 609.122 525.785 610.202 532.733C611.282 539.682 614.088 546.128 618.285 551.3C622.482 556.472 627.891 560.153 633.868 561.901C639.844 563.65 646.133 563.393 651.985 561.16C658.592 563.931 665.808 564.156 672.537 561.803C677.228 562.99 682.092 562.958 686.771 561.708C691.449 560.458 695.823 558.023 699.57 554.582C703.316 551.141 706.34 546.781 708.418 541.825C710.496 536.869 711.576 531.442 711.577 525.946C711.577 525.143 711.577 524.339 711.507 523.536C711.845 522.257 712.122 520.956 712.335 519.642V519.642Z" fill="black"/>
<path d="M490.351 138.104H486.329C485.441 138.104 484.722 138.927 484.722 139.943V204.542C484.722 205.557 485.441 206.381 486.329 206.381H490.351C491.239 206.381 491.958 205.557 491.958 204.542V139.943C491.958 138.927 491.239 138.104 490.351 138.104Z" fill="#3F3D56"/>
<path d="M247.106 84.6113H245.148C244.566 84.6113 244.095 85.1506 244.095 85.8159V105.885C244.095 106.55 244.566 107.089 245.148 107.089H247.106C247.687 107.089 248.159 106.55 248.159 105.885V85.8159C248.159 85.1506 247.687 84.6113 247.106 84.6113Z" fill="#3F3D56"/>
<path d="M247.337 125.769H245.133C244.478 125.769 243.947 126.376 243.947 127.126V163.537C243.947 164.286 244.478 164.894 245.133 164.894H247.337C247.993 164.894 248.524 164.286 248.524 163.537V127.126C248.524 126.376 247.993 125.769 247.337 125.769Z" fill="#3F3D56"/>
<path d="M247.246 178.578H245.148C244.524 178.578 244.018 179.157 244.018 179.871V216.748C244.018 217.462 244.524 218.041 245.148 218.041H247.246C247.87 218.041 248.376 217.462 248.376 216.748V179.871C248.376 179.157 247.87 178.578 247.246 178.578Z" fill="#3F3D56"/>
<path d="M463.573 10.3354H271.447C257.612 10.3354 246.396 23.1676 246.396 38.997V544.922C246.396 560.751 257.612 573.584 271.447 573.584H463.573C477.408 573.584 488.624 560.751 488.624 544.922V38.997C488.624 23.1676 477.408 10.3354 463.573 10.3354Z" fill="#3F3D56"/>
<path d="M376.186 27.1517H345.926C344.942 27.1517 344.144 28.065 344.144 29.1915V32.974C344.144 34.1005 344.942 35.0138 345.926 35.0138H376.186C377.17 35.0138 377.968 34.1005 377.968 32.974V29.1915C377.968 28.065 377.17 27.1517 376.186 27.1517Z" fill="#E6E8EC"/>
<path d="M386.982 35.5358C389.133 35.5358 390.877 33.5403 390.877 31.0787C390.877 28.6172 389.133 26.6217 386.982 26.6217C384.83 26.6217 383.086 28.6172 383.086 31.0787C383.086 33.5403 384.83 35.5358 386.982 35.5358Z" fill="#E6E8EC"/>
<path d="M473.667 47.0116V536.883C473.665 542.72 471.637 548.317 468.029 552.443C464.421 556.569 459.529 558.887 454.427 558.887H280.594C275.492 558.887 270.6 556.569 266.992 552.443C263.384 548.317 261.356 542.72 261.354 536.883V47.0116C261.354 44.121 261.852 41.2586 262.819 38.5879C263.786 35.9173 265.203 33.4907 266.99 31.4467C268.776 29.4027 270.897 27.7813 273.231 26.6751C275.565 25.5689 278.067 24.9995 280.594 24.9995H306.606V28.8221C306.614 33.6244 308.286 38.2272 311.256 41.6207C314.226 45.0142 318.251 46.9212 322.448 46.9233H410.888C412.969 46.9233 415.029 46.4545 416.951 45.5436C418.873 44.6327 420.619 43.2976 422.09 41.6145C423.561 39.9314 424.728 37.9333 425.524 35.7343C426.32 33.5352 426.73 31.1783 426.73 28.798V24.9995H454.463C459.559 25.0101 464.444 27.334 468.044 31.4609C471.644 35.5878 473.667 41.1806 473.667 47.0116V47.0116Z" fill="white"/>
<path d="M475.19 249.296V415.877H473.667V416.046H261.354V212.532C262.716 210.755 264.097 208.91 265.496 206.999C295.313 166.259 335.841 155.538 367.209 154.414C388.701 153.611 410.095 158.694 430.521 168.789C441.309 174.121 456.793 179.968 473.667 180.546V243.522C474.698 246.887 475.19 249.296 475.19 249.296Z" fill="#2A9D8F" fill-opacity="0.3"/>
<path d="M94.0977 549.074L107.532 540.007C105.715 536.457 103.393 533.278 100.661 530.603L75.3147 539.654L95.1786 526.291C90.2615 523.209 84.7276 521.645 79.1218 521.754C73.516 521.862 68.0314 523.638 63.2079 526.908C58.3844 530.178 54.3882 534.829 51.6128 540.402C48.8373 545.976 47.3781 552.28 47.3789 558.695C47.3789 579.101 61.8311 579.807 79.6665 579.807C97.5019 579.807 111.954 579.101 111.954 558.695C111.96 553.532 111.016 548.426 109.182 543.709L94.0977 549.074Z" fill="#00BFA6"/>
<path opacity="0.1" d="M97.5156 568.918C96.0858 567.277 94.4879 565.84 92.7566 564.637C90.314 562.782 87.7942 560.895 84.9164 560.261C82.3895 559.707 79.7854 560.172 77.1954 560.012C72.7266 559.697 68.5204 557.49 65.3964 553.82C63.5644 551.652 62.1185 549.002 59.9145 547.323C57.5351 545.541 54.5169 545.155 51.6952 545.597C50.8775 545.738 50.0669 545.928 49.2666 546.167C47.9999 550.187 47.3539 554.429 47.3574 558.703C47.3574 579.109 61.8097 579.815 79.6451 579.815C88.2995 579.815 96.1539 579.647 101.952 577.141L100.983 575.069C100.059 572.859 98.894 570.792 97.5156 568.918V568.918Z" fill="black"/>
<path d="M160.203 467.627C159.177 468.657 158.386 469.958 157.9 471.417C156.7 475.706 160.055 479.914 160.378 484.403C160.631 487.969 158.974 491.293 158.034 494.714C156.972 498.964 157.041 503.479 158.231 507.684C159.421 511.889 161.679 515.593 164.716 518.324C165.363 518.952 166.126 519.403 166.948 519.642C167.626 519.735 168.314 519.669 168.969 519.448C169.625 519.227 170.234 518.856 170.759 518.357C172.389 517 173.632 515.123 174.332 512.96C174.914 510.835 175.229 508.626 175.266 506.399L175.764 497.806C176.283 488.836 176.754 479.584 174.844 470.775C174.22 467.884 173.062 461.242 170.142 460.841C167.222 460.439 162.14 465.459 160.203 467.627Z" fill="#3F3D56"/>
<path d="M209.168 430.718C205.661 444.805 203.12 459.183 201.566 473.722C201.341 475.77 201.11 477.922 200.029 479.576C197.874 482.893 193.557 482.684 189.977 482.146C189.118 482.095 188.281 481.82 187.528 481.343C186.18 480.299 185.885 478.211 185.724 476.356C183.272 449.009 181.634 421.589 180.811 394.098C180.775 393.046 210.775 392.949 213.344 395.704C215.913 398.458 213.919 408.762 213.344 412.271C212.403 418.519 210.705 424.606 209.168 430.718Z" fill="#FBBEBE"/>
<path opacity="0.05" d="M209.168 430.718C205.661 444.805 203.12 459.183 201.566 473.722C201.341 475.77 201.11 477.922 200.029 479.576C197.874 482.893 193.557 482.684 189.977 482.146C189.118 482.095 188.281 481.82 187.528 481.343C186.18 480.299 185.885 478.211 185.724 476.356C183.272 449.009 181.634 421.589 180.811 394.098C180.775 393.046 210.775 392.949 213.344 395.704C215.913 398.458 213.919 408.762 213.344 412.271C212.403 418.519 210.705 424.606 209.168 430.718Z" fill="black"/>
<path d="M146.698 390.187L158.848 420.76C162.891 430.927 166.962 441.206 168.892 452.152C169.667 456.724 170.162 461.353 170.373 466.005C170.667 469.991 170.558 474.004 170.051 477.962C169.608 480.901 168.794 483.76 168.436 486.716C167.032 498.497 172.865 509.579 176.859 520.541C180.31 529.955 182.505 539.909 183.373 550.07C183.738 554.398 183.941 558.992 186.103 562.566C190.055 561.208 193.915 560.036 198.036 560.566C198.773 553.651 194.954 547.283 193.55 540.489C190.974 528.042 196.667 514.96 194.73 502.359C193.677 495.533 190.413 489.109 190.68 482.186C191.178 469.562 193.249 456.809 191.143 444.442C188.77 430.461 181.948 417.748 180.439 403.614C179.281 392.757 181.141 380.751 175.855 371.628C164.309 370.849 152.37 378.647 146.698 390.187Z" fill="#FBBEBE"/>
<path d="M186.63 582.184C185.415 582.233 183.997 582.184 183.246 581.084C182.88 580.444 182.669 579.704 182.636 578.94C182.061 574.099 181.779 569.218 181.793 564.332C181.793 562.549 181.864 560.654 182.734 559.185C183.373 558.288 184.101 557.479 184.903 556.775C186.763 554.808 188.118 551.957 190.518 551.05C191.57 550.7 192.685 550.683 193.744 551.001C194.804 551.319 195.768 551.961 196.533 552.856C198.048 554.704 198.986 557.073 199.201 559.594C199.552 562.582 199.257 565.834 200.64 568.428C201.187 569.432 201.952 570.251 202.57 571.199C204.676 574.411 206.564 580.699 202.219 582C197.614 583.373 191.41 582.008 186.63 582.184Z" fill="#3F3D56"/>
<path d="M197.165 209.256C199.622 203.827 198.155 196.84 194.645 192.23C191.136 187.621 186.005 185.051 180.768 183.662C173.749 181.783 166.225 181.799 159.508 184.754C154.152 187.107 149.541 191.178 144.599 194.503C135.867 200.385 126.093 203.952 115.997 204.943C104.766 206.027 92.2232 204.341 83.5406 212.524C67.6355 227.509 78.7115 261.278 63.8873 277.629C59.8865 282.038 54.545 284.423 49.9615 288.012C45.3781 291.602 41.279 297.344 42.016 303.64C42.3669 306.668 43.8128 309.398 45.4834 311.783C52.6568 322.038 64.7015 327.411 76.0934 325.813C87.4853 324.215 97.9157 315.847 103.468 304.331C104.872 301.448 106.009 298.292 108.22 296.196C112.649 292.012 119.148 293.706 124.89 293.505C137.657 293.056 149.253 280.536 150.369 265.968C150.846 259.744 149.92 252.501 153.829 248.132C156.981 244.599 161.908 244.631 166.218 243.547C174.135 241.563 179.898 235.01 183.513 227.011C185.169 223.333 185.001 219.222 187.458 216.17C190.076 212.813 194.828 214.411 197.165 209.256Z" fill="#3F3D56"/>
<g opacity="0.1">
<path opacity="0.1" d="M105.532 207.489C110.189 207.034 114.792 206.031 119.268 204.493C118.005 204.694 116.741 204.863 115.471 204.983C106.669 205.826 97.0389 204.983 89.1074 208.525C94.5121 207.89 100.176 208.003 105.532 207.489Z" fill="black"/>
<path opacity="0.1" d="M97.6983 298.741C95.4873 300.829 94.3222 303.994 92.9464 306.877C88.6927 315.649 81.8808 322.434 73.7002 326.046C74.3249 325.998 74.9496 325.933 75.5743 325.845C86.9662 324.239 97.3965 315.887 102.949 304.371C104.352 301.488 105.482 298.324 107.7 296.236L108.079 295.899C104.226 295.794 100.534 296.059 97.6983 298.741Z" fill="black"/>
<path opacity="0.1" d="M194.119 192.279C190.609 187.669 185.443 185.107 180.242 183.71C173.223 181.831 165.699 181.855 158.975 184.81L158.525 185.019C162.481 184.761 166.449 185.164 170.303 186.215C175.504 187.613 180.677 190.175 184.18 194.792C187.682 199.41 189.156 206.389 186.7 211.817C184.362 216.973 179.611 215.367 176.936 218.7C174.48 221.743 174.648 225.863 172.992 229.541C169.882 236.423 165.172 242.221 158.883 244.976C161.08 244.382 163.439 244.117 165.629 243.571C173.546 241.579 179.309 235.034 182.924 227.035C184.587 223.357 184.419 219.238 186.868 216.194C189.55 212.861 194.301 214.459 196.632 209.312C199.088 203.899 197.621 196.912 194.119 192.279Z" fill="black"/>
<path opacity="0.1" d="M155.697 246.084C151.387 247.16 146.46 247.136 143.308 250.662C139.399 255.038 140.325 262.282 139.848 268.506C139.013 279.388 132.323 289.129 123.669 293.554H124.308C137.075 293.104 148.664 280.576 149.78 266.016C150.264 259.785 149.338 252.541 153.247 248.172C154.143 247.194 155.197 246.425 156.35 245.908L155.697 246.084Z" fill="black"/>
</g>
<path d="M197.376 282.343C196.793 283.523 195.593 284.069 194.477 284.543C182.923 289.41 170.766 294.365 158.581 292.317C158.125 290.124 157.676 287.924 157.227 285.732C156.576 282.552 155.921 279.371 155.261 276.191C154.953 274.673 154.637 273.14 154.384 271.598C153.949 269.163 153.809 266.672 153.97 264.193C154.044 263.295 154.185 262.406 154.391 261.535C154.752 259.951 155.355 258.453 156.174 257.11C156.314 256.894 156.462 256.677 156.616 256.468C157.31 255.51 158.152 254.707 159.101 254.099C161.171 252.798 164.014 252.244 164.849 249.722C165.172 248.404 165.141 247.004 164.758 245.707C164.056 242.495 162.786 239.475 162 236.295C161.003 232.279 162.505 232.528 165.895 231.557C172.002 229.798 178.389 228.537 184.657 229.951C184.362 233.492 184.075 237.122 184.854 240.575C185.633 244.028 187.717 247.305 190.715 248.261C191.157 248.405 191.627 248.493 192.118 248.614C192.769 248.734 193.387 249.025 193.922 249.465C194.292 249.814 194.585 250.257 194.779 250.758C195.084 251.606 195.284 252.497 195.375 253.408C196.475 261.835 197.268 270.302 197.755 278.809V279.13C197.899 280.221 197.767 281.335 197.376 282.343V282.343Z" fill="#FBBEBE"/>
<path d="M137.896 268.506C135.271 273.075 134.386 278.633 133.586 284.029L128.49 317.838C127.789 322.464 127.164 327.547 129.234 331.603C129.936 332.976 130.919 334.165 131.431 335.618C131.819 337.081 132.073 338.585 132.189 340.107C133.383 347.857 140.044 353.085 146.726 354.964C149.14 355.647 151.962 355.912 153.864 354.073C155.97 352.073 155.97 348.267 154.728 345.52C153.485 342.774 151.218 340.83 149.021 338.991L141.742 332.856L145.954 295.915C146.263 293.232 147.358 289.755 149.73 290.052C151.892 290.317 153.555 293.923 155.479 292.759C156.081 292.292 156.506 291.579 156.665 290.767C157.507 287.739 157.276 284.479 157.037 281.307L156.167 269.855C155.879 266.137 156.714 263.35 157.107 259.857C157.563 255.785 155.191 257.022 152.264 257.897C146.642 259.6 141.146 262.836 137.896 268.506Z" fill="#FBBEBE"/>
<path d="M228.406 324.03C227.872 325.059 227.079 325.882 226.132 326.391C220.449 330.057 213.766 331.133 207.419 329.403C205.957 328.911 204.471 328.514 202.969 328.214C200.569 327.877 198.126 328.423 195.705 328.214C190.791 327.788 186.475 324.279 183.07 320.183C181.021 317.774 179.161 313.831 181.07 311.245C181.603 310.621 182.266 310.162 182.996 309.909C183.726 309.656 184.5 309.619 185.246 309.8C186.732 310.178 188.166 310.789 189.507 311.615C194.204 314.106 199.23 315.691 204.38 316.305C207.89 316.722 212.354 316.04 213.568 312.225C214.158 310.37 213.744 308.314 213.329 306.395C212.197 301.137 211.065 295.877 209.932 290.614C209.854 290.155 209.712 289.713 209.511 289.305C209.454 289.195 209.385 289.093 209.308 289C208.86 288.574 208.319 288.296 207.742 288.197C205.124 287.458 202.506 286.262 200.632 284.053C199.404 282.485 198.425 280.683 197.74 278.729C197.544 278.239 197.361 277.741 197.172 277.243C195.733 273.405 194.217 269.47 193.044 265.438C192.226 262.713 191.622 259.91 191.241 257.062C190.932 254.597 190.763 253.464 191.942 252.372C192.259 252.099 192.594 251.858 192.946 251.65C193.487 251.32 194.097 250.991 194.743 250.678L195.368 250.381C197.288 249.502 199.261 248.783 201.271 248.228C206.142 246.936 211.343 249.634 214.684 253.898C218.025 258.162 219.759 263.744 220.868 269.325C221.977 274.906 222.545 280.624 223.935 286.117C224.476 288.269 225.15 290.39 225.613 292.542C226.11 295.102 226.464 297.696 226.673 300.307C227.332 306.962 227.99 313.617 228.645 320.272C228.887 321.524 228.804 322.831 228.406 324.03Z" fill="#FBBEBE"/>
<path d="M156.336 321.139C157.739 331.386 153.703 341.465 149.801 350.853C152.012 352.7 154.714 353.615 157.353 354.41C175.017 359.723 193.38 361.304 211.54 359.076C211.975 355.607 212.383 351.929 211.14 348.732C210.368 346.749 209.035 345.135 208.185 343.191C206.781 339.979 206.922 336.245 207.076 332.679L208.333 302.299C199.622 297.705 189.522 302.01 179.941 302.628C174.978 302.95 169.952 302.259 165.06 303.263C162.519 303.785 154.532 305.222 153.331 308.218C152.131 311.213 155.907 317.879 156.336 321.139Z" fill="#FBBEBE"/>
<path opacity="0.05" d="M156.336 321.139C157.739 331.386 153.703 341.465 149.801 350.853C152.012 352.7 154.714 353.615 157.353 354.41C175.017 359.723 193.38 361.304 211.54 359.076C211.975 355.607 212.383 351.929 211.14 348.732C210.368 346.749 209.035 345.135 208.185 343.191C206.781 339.979 206.922 336.245 207.076 332.679L208.333 302.299C199.622 297.705 189.522 302.01 179.941 302.628C174.978 302.95 169.952 302.259 165.06 303.263C162.519 303.785 154.532 305.222 153.331 308.218C152.131 311.213 155.907 317.879 156.336 321.139Z" fill="black"/>
<path d="M179.414 350.547C169.973 348.299 160.694 344.581 151.057 344.324C150.573 344.267 150.085 344.373 149.653 344.629C149.183 345.074 148.869 345.698 148.769 346.387C147.772 350.322 146.881 354.287 146.095 358.281C143.484 371.556 142.199 386.22 147.941 398.137C147.884 394.266 150.011 390.645 152.854 388.5C155.697 386.356 159.101 385.489 162.47 385.136C165.839 384.782 169.44 384.927 172.578 386.509C174.77 387.649 176.662 389.429 178.063 391.67C179.464 393.911 180.324 396.535 180.558 399.278L213.723 400.506C213.917 400.571 214.122 400.58 214.32 400.531C214.518 400.482 214.702 400.377 214.855 400.227C215.008 400.076 215.127 399.884 215.199 399.667C215.271 399.451 215.294 399.218 215.267 398.988C216.49 386.816 216.445 374.521 215.134 362.36C214.769 358.963 214.72 354.249 211.379 352.973C207.392 351.447 201.089 353.23 196.828 353.021C190.974 352.739 185.15 351.912 179.414 350.547V350.547Z" fill="#3F3D56"/>
<path d="M209.518 291.056L209.413 307.92L175.862 309.197C169.706 309.438 163.501 309.679 157.5 311.245C155.773 311.695 154.068 312.257 152.369 312.811C150.6 305.399 148.86 297.633 149.323 290.076C149.451 288.038 149.761 286.019 150.249 284.053C151.316 279.813 153.317 275.814 154.384 271.622C154.814 269.99 155.05 268.299 155.085 266.595C155.006 264.893 154.771 263.205 154.384 261.559C154.076 260.21 153.929 258.818 153.948 257.424L156.609 256.484C156.686 256.845 156.749 257.199 156.805 257.568C156.917 258.331 157.009 259.11 157.072 259.889C157.222 261.819 157.269 263.758 157.212 265.695C157.121 269.566 156.665 273.878 158.778 276.938C161.522 280.865 166.8 280.255 171.11 279.275L182.397 276.697C185.962 275.894 189.942 274.754 191.802 271.18C192.596 269.445 193.015 267.517 193.023 265.559V265.173C193.191 260.908 192.82 256.637 191.921 252.493C191.648 251.192 191.311 249.907 190.932 248.646H192.062C192.713 248.766 193.33 249.057 193.866 249.497C194.235 249.846 194.528 250.289 194.722 250.79L195.347 250.493C197.837 262.14 201.941 273.256 207.504 283.419C208.219 284.582 208.786 285.856 209.188 287.201C209.355 287.931 209.449 288.68 209.469 289.434C209.525 289.908 209.518 290.478 209.518 291.056Z" fill="#F4A261"/>
<path d="M174.072 240.013C185.314 240.013 194.427 229.586 194.427 216.724C194.427 203.862 185.314 193.435 174.072 193.435C162.83 193.435 153.717 203.862 153.717 216.724C153.717 229.586 162.83 240.013 174.072 240.013Z" fill="#FBBEBE"/>
<path d="M137.896 268.506C135.271 273.075 134.386 278.633 133.586 284.029L128.49 317.838C127.789 322.464 127.164 327.548 129.234 331.603C129.936 332.976 130.919 334.165 131.431 335.618C131.819 337.081 132.073 338.585 132.189 340.108C133.383 347.857 140.044 353.085 146.726 354.964C149.14 355.647 151.962 355.912 153.864 354.073C155.97 352.073 155.97 348.267 154.728 345.52C153.485 342.774 151.218 340.83 149.021 338.991L141.742 332.856L145.954 295.915C146.235 293.257 141.146 262.836 137.896 268.506Z" fill="#FBBEBE"/>
<path d="M220.875 269.373C221.984 274.955 222.552 280.672 223.942 286.165C224.483 288.326 225.157 290.438 225.62 292.59C226.117 295.147 226.471 297.739 226.68 300.348L228.652 320.312C228.879 321.545 228.794 322.827 228.406 324.006C227.87 325.033 227.078 325.855 226.132 326.367C220.446 330.024 213.766 331.099 207.419 329.379C205.959 328.879 204.472 328.482 202.969 328.19C200.569 327.845 198.126 328.399 195.705 328.19C190.791 327.764 186.475 324.263 183.07 320.199C181.021 317.79 179.161 313.839 181.07 311.253C181.603 310.629 182.266 310.17 182.996 309.917C183.726 309.664 184.5 309.627 185.246 309.808C186.733 310.189 188.166 310.803 189.507 311.631C194.206 314.116 199.231 315.698 204.38 316.313C207.89 316.738 212.354 316.056 213.568 312.233C214.158 310.378 213.744 308.322 213.329 306.403L209.932 290.622C209.792 290.076 219.766 263.8 220.875 269.373Z" fill="#FBBEBE"/>
<path d="M161.474 223.895C160.568 220.177 159.298 215.527 161.846 213.006C162.761 212.197 163.865 211.714 165.018 211.617C170.739 210.813 176.656 214.668 182.131 212.612C183.877 211.959 185.421 210.742 186.576 209.108C187.731 207.473 188.448 205.491 188.64 203.401C188.832 201.31 188.492 199.201 187.659 197.327C186.827 195.453 185.538 193.895 183.949 192.841C181.555 191.235 178.698 190.921 175.94 190.64C168.675 189.877 161.102 189.171 154.307 192.247C147.513 195.322 141.785 203.241 143.189 211.44C143.842 215.351 145.955 218.716 148.102 221.832C149.752 224.201 156.371 235.484 159.031 235.323C162.779 235.082 162.063 226.313 161.474 223.895Z" fill="#3F3D56"/>
<path opacity="0.1" d="M183.948 192.841C183.543 192.573 183.12 192.339 182.685 192.142C183.917 193.422 184.835 195.049 185.345 196.862C185.855 198.674 185.94 200.608 185.592 202.47C185.244 204.332 184.474 206.057 183.36 207.472C182.247 208.886 180.828 209.942 179.245 210.532C173.771 212.588 167.854 208.733 162.133 209.537C160.979 209.634 159.876 210.117 158.96 210.926C156.413 213.448 157.683 218.097 158.588 221.815C159.178 224.225 159.894 233.002 156.16 233.243H156.097C157.255 234.536 158.301 235.379 159.045 235.331C162.779 235.09 162.063 226.321 161.473 223.903C160.568 220.185 159.297 215.535 161.845 213.014C162.761 212.205 163.864 211.722 165.018 211.625C170.738 210.821 176.655 214.676 182.13 212.62C183.877 211.967 185.42 210.75 186.576 209.116C187.731 207.481 188.447 205.499 188.64 203.409C188.832 201.318 188.491 199.209 187.659 197.335C186.826 195.461 185.538 193.903 183.948 192.849V192.841Z" fill="black"/>
<path d="M482.911 482.54H254.09V563.65H482.911V482.54Z" fill="#3F3D56"/>
<path d="M358.674 508.752V537.421L378.327 523.087L358.674 508.752Z" fill="white"/>
<path d="M183.198 27.4087L172.304 35.3109L178.916 21.5544C177.042 19.843 174.723 18.8962 172.325 18.8641H172.15C171.393 18.8768 170.636 18.8123 169.889 18.6714L166.197 21.3456L167.784 18.053C165.164 17.0105 162.903 15.0418 161.326 12.4315L154.714 17.2499L158.891 8.56876C155.023 3.26048 149.815 0.00805664 144.087 0.00805664C137.216 0.00805664 131.095 4.68191 127.143 11.9657C125.975 14.1528 124.319 15.945 122.346 17.1586C120.372 18.3722 118.152 18.9636 115.913 18.8721H115.541C107.953 18.8721 101.805 28.7097 101.805 40.8521C101.805 52.9945 107.953 62.8321 115.541 62.8321C117.21 62.8232 118.853 62.352 120.328 61.4589C122.909 60.0215 125.733 59.2439 128.603 59.1801C131.473 59.1163 134.321 59.7678 136.949 61.0894C139.173 62.2276 141.581 62.8158 144.017 62.8158C146.453 62.8158 148.862 62.2276 151.085 61.0894C153.695 59.7951 156.517 59.1582 159.361 59.2219C162.205 59.2856 165.003 60.0486 167.566 61.4589C169.026 62.3332 170.649 62.7932 172.297 62.8C179.885 62.8 186.033 52.9544 186.033 40.82C186.085 36.1483 185.11 31.5366 183.198 27.4087V27.4087Z" fill="#F2F2F2"/>
<path opacity="0.03" d="M162.66 59.5716C158.703 58.713 154.613 59.2219 150.91 61.0331C148.685 62.1688 146.277 62.7557 143.841 62.7557C141.406 62.7557 138.997 62.1688 136.773 61.0331C134.144 59.7144 131.296 59.0651 128.426 59.1303C125.557 59.1954 122.733 59.9735 120.152 61.4106C118.676 62.3003 117.034 62.7687 115.365 62.7758C108.627 62.7758 103.019 55.0101 101.854 44.763C103.197 43.6364 104.34 42.2273 105.223 40.6111C109.174 33.3192 115.295 28.6454 122.167 28.6454C129.038 28.6454 135.082 33.263 139.012 40.4746C140.195 42.6436 141.847 44.4268 143.808 45.6521C145.769 46.8774 147.973 47.5033 150.208 47.4693H150.383C155.753 47.4693 160.399 52.3921 162.66 59.5716Z" fill="black"/>
<path d="M555.908 206.525L550.476 210.468L553.775 203.602C552.84 202.75 551.684 202.278 550.49 202.261H550.398C550.023 202.268 549.647 202.238 549.275 202.173L547.401 203.522L548.194 201.875C546.889 201.357 545.761 200.379 544.973 199.081L541.674 201.49L543.779 197.161C542.903 195.867 541.785 194.812 540.508 194.073C539.231 193.334 537.826 192.93 536.395 192.889C532.97 192.889 529.917 195.218 527.973 198.856C527.387 199.948 526.559 200.842 525.572 201.448C524.586 202.053 523.476 202.348 522.357 202.301H522.175C518.392 202.301 515.324 207.216 515.324 213.263C515.324 219.31 518.392 224.233 522.175 224.233C523.007 224.229 523.826 223.995 524.561 223.55C525.848 222.833 527.256 222.444 528.688 222.411C530.119 222.378 531.539 222.701 532.851 223.357C533.954 223.928 535.15 224.227 536.36 224.233C537.569 224.228 538.764 223.938 539.87 223.382C541.171 222.736 542.578 222.418 543.996 222.448C545.414 222.479 546.81 222.857 548.089 223.558C548.816 223.997 549.625 224.229 550.448 224.233C554.231 224.233 557.298 219.318 557.298 213.263C557.339 210.919 556.861 208.601 555.908 206.525V206.525Z" fill="#F2F2F2"/>
<path opacity="0.03" d="M545.64 222.57C543.664 222.137 541.62 222.391 539.772 223.301C538.668 223.865 537.472 224.156 536.263 224.156C535.053 224.156 533.858 223.865 532.753 223.301C531.442 222.645 530.022 222.322 528.591 222.354C527.16 222.386 525.752 222.772 524.464 223.486C523.729 223.934 522.91 224.171 522.077 224.177C518.715 224.177 515.921 220.298 515.339 215.19C516.009 214.629 516.579 213.926 517.016 213.118C518.989 209.48 522.042 207.151 525.439 207.151C528.837 207.151 531.883 209.456 533.862 213.046C534.452 214.138 535.28 215.035 536.264 215.65C537.249 216.265 538.356 216.577 539.477 216.555H539.562C542.194 216.531 544.517 218.989 545.64 222.57Z" fill="black"/>
<path d="M567.932 104.126L576.657 110.462L571.35 99.4359C572.852 98.0681 574.709 97.3109 576.629 97.2837H576.769C577.376 97.294 577.982 97.2429 578.58 97.1311L581.542 99.2753L580.272 96.6412C582.366 95.8006 584.176 94.2272 585.445 92.144L590.744 95.9827L587.396 89.0281C590.491 84.7719 594.668 82.1699 599.258 82.1699C604.768 82.1699 609.667 85.9122 612.833 91.7505C613.769 93.4976 615.093 94.9299 616.67 95.9017C618.247 96.8736 620.02 97.3504 621.81 97.2837H622.105C628.184 97.2837 633.111 105.17 633.111 114.895C633.111 124.62 628.198 132.506 622.105 132.506C620.769 132.498 619.454 132.121 618.273 131.406C616.202 130.251 613.936 129.626 611.633 129.575C609.33 129.524 607.045 130.047 604.937 131.109C603.155 132.019 601.227 132.49 599.276 132.49C597.325 132.49 595.396 132.019 593.615 131.109C591.525 130.07 589.264 129.559 586.986 129.609C584.708 129.658 582.466 130.269 580.412 131.398C579.239 132.097 577.937 132.466 576.615 132.474C570.536 132.474 565.609 124.588 565.609 114.863C565.587 111.118 566.385 107.426 567.932 104.126V104.126Z" fill="#F2F2F2"/>
<path opacity="0.03" d="M584.378 129.896C587.554 129.204 590.839 129.612 593.812 131.069C595.593 131.979 597.522 132.45 599.472 132.45C601.423 132.45 603.352 131.979 605.133 131.069C607.243 130.01 609.528 129.489 611.831 129.542C614.133 129.595 616.399 130.22 618.469 131.374C619.651 132.086 620.966 132.461 622.302 132.466C627.699 132.466 632.192 126.242 633.132 118.011C632.05 117.113 631.131 115.981 630.43 114.678C627.264 108.848 622.358 105.098 616.855 105.098C611.352 105.098 606.502 108.8 603.336 114.574C602.39 116.315 601.068 117.747 599.496 118.732C597.925 119.717 596.158 120.221 594.366 120.195H594.226C589.916 120.203 586.189 124.146 584.378 129.896Z" fill="black"/>
<path d="M475.19 249.296V415.877H261.354V306.756C268.97 304.564 279.604 296.131 293.249 272.834C309.568 244.96 331.742 237.628 348.903 236.857C360.66 236.327 372.368 239.78 383.542 246.695C396.113 254.46 420.343 263.824 438.754 236.64C459.109 206.581 469.933 231.372 473.667 243.522C474.698 246.887 475.19 249.296 475.19 249.296Z" fill="#2A9D8F" fill-opacity="0.6"/>
<path d="M444.305 385.368H291.29C286.638 385.368 282.867 389.683 282.867 395.005V436.765C282.867 442.087 286.638 446.402 291.29 446.402H444.305C448.957 446.402 452.728 442.087 452.728 436.765V395.005C452.728 389.683 448.957 385.368 444.305 385.368Z" fill="#736E9E"/>
</svg>
