<svg width="1025" height="805" viewBox="0 0 1025 805" fill="none" xmlns="http://www.w3.org/2000/svg">
<path d="M564.5 25C664.703 19.3117 739.887 -26.5528 826 25C875.35 54.5443 913.661 111.489 948.5 180.5C997.724 278.005 993.85 346.421 999.5 455.5C1005.87 578.537 1067.48 695.477 969 769.5C888.771 829.802 807.939 798.976 712 769.5C658.16 752.959 636.667 722.094 583 705C427.826 655.575 308.035 857.497 171 769.5C76.3377 708.712 50.6141 629.993 27.0001 520C10.8517 444.781 -24.4332 380.213 27.0001 323C73.2877 271.511 143.157 327.051 201 289C284.432 234.116 228.55 121.061 303 54.5C403.158 -35.0437 430.367 32.6144 564.5 25Z" fill="#2A9D8F" fill-opacity="0.25"/>
</svg>
