<svg width="987" height="1150" viewBox="0 0 987 1150" fill="none" xmlns="http://www.w3.org/2000/svg">
<path d="M376.5 32C266.028 14.2758 184.012 -28.6633 90.0002 32C-35.1697 112.769 103.995 277.192 90.0001 425.5C76.4436 569.161 36.5003 653 17.5002 776C-11.1305 961.345 -22.1082 1070.56 151.5 1141.5C268.087 1189.14 464.083 1020.88 582.501 978C688.776 939.513 732.778 1166.24 807.001 1081C852.131 1029.17 886.044 963.228 910.501 899C948.091 800.278 1047 705 933 583.5C886.785 534.244 816.001 559 752.501 513.5C686.683 466.339 692.001 513.5 655.501 371C629.632 270.006 641.636 133.889 553 79C492.357 41.446 446.929 43.2996 376.5 32Z" fill="#2A9D8F" fill-opacity="0.2"/>
</svg>
