<svg width="759" height="643" viewBox="0 0 759 643" fill="none" xmlns="http://www.w3.org/2000/svg">
<path d="M204.486 0.717355C283.86 10.8478 348.306 81.2911 419.819 125.251C435.754 135.047 452.456 143.673 470.115 146.228C528.612 154.695 582.552 96.0212 641.323 100.812C688.955 104.695 729.351 151.742 746.488 207.082C763.626 262.421 760.998 324.318 751.481 382.41C736.58 473.13 703.567 562.378 646.102 621.386C636.62 631.127 626.028 640.238 613.849 642.451C593.553 646.183 574.734 630.148 557.17 616.89C477.898 557.031 377.683 541.831 289.177 576.241C259.203 587.891 230.535 604.889 199.861 613.277C140.791 629.4 73.9467 609.028 33.8417 552.797C-6.26326 496.566 -12.7838 404.143 25.4264 345.891C41.3779 321.58 63.3636 304.415 80.1088 280.955C122.185 222.066 106.652 162.525 101.446 93.4667C96.3164 25.4187 158.117 -5.19537 204.486 0.717355Z" fill="#F4A261" fill-opacity="0.25"/>
</svg>
